<svg xmlns="http://www.w3.org/2000/svg" xmlns:xlink="http://www.w3.org/1999/xlink" width="200" zoomAndPan="magnify" viewBox="0 0 150 149.999998" height="200" preserveAspectRatio="xMidYMid meet" version="1.0"><path fill="#010101" d="M 130.226562 84.316406 L 130.226562 36.363281 C 130.226562 35.910156 130 35.453125 130 35.226562 L 112.953125 4.316406 C 111.589844 1.589844 108.863281 0 105.910156 0 C 86.363281 0 68.183594 0 24.089844 0 C 21.136719 0 18.410156 1.589844 17.046875 4.316406 L 0.226562 35.226562 C 0 35.453125 0 35.910156 0 36.363281 L 0 117.953125 C 0 123.183594 4.316406 127.5 9.546875 127.5 L 83.410156 127.5 C 88.183594 140.683594 100.910156 150 115.683594 150 C 134.546875 150 150 134.546875 150 115.453125 C 150 101.816406 141.816406 89.773438 130.226562 84.316406 Z M 45.910156 38.636719 L 84.089844 38.636719 L 84.089844 59.546875 L 45.910156 59.546875 Z M 109.089844 6.363281 L 124.089844 34.089844 L 88.183594 34.089844 L 80.226562 4.546875 L 105.910156 4.546875 C 107.273438 4.546875 108.410156 5.226562 109.089844 6.363281 Z M 75.683594 4.546875 L 83.636719 34.089844 L 46.589844 34.089844 L 54.546875 4.546875 Z M 20.910156 6.363281 C 21.589844 5.226562 22.726562 4.546875 24.089844 4.546875 L 49.773438 4.546875 L 41.816406 34.089844 L 5.910156 34.089844 Z M 9.546875 122.953125 C 6.816406 122.953125 4.546875 120.683594 4.546875 117.953125 L 4.546875 38.636719 L 41.363281 38.636719 L 41.363281 61.816406 C 41.363281 63.183594 42.273438 64.089844 43.636719 64.089844 L 86.363281 64.089844 C 87.726562 64.089844 88.636719 63.183594 88.636719 61.816406 L 88.636719 38.636719 L 125.453125 38.636719 L 125.453125 82.726562 C 122.273438 81.816406 118.863281 81.136719 115.453125 81.136719 C 96.363281 81.136719 80.910156 96.589844 80.910156 115.683594 C 80.910156 118.183594 81.136719 120.683594 81.816406 123.183594 L 9.546875 123.183594 Z M 115.683594 145.453125 C 99.089844 145.453125 85.683594 132.046875 85.683594 115.453125 C 85.683594 98.863281 99.089844 85.453125 115.683594 85.453125 C 132.273438 85.453125 145.683594 98.863281 145.683594 115.453125 C 145.453125 132.046875 132.046875 145.453125 115.683594 145.453125 Z M 115.683594 145.453125 " fill-opacity="1" fill-rule="nonzero"/><path fill="#010101" d="M 132.273438 101.589844 L 109.546875 125.683594 L 99.546875 114.089844 C 98.636719 113.183594 97.273438 112.953125 96.363281 113.863281 C 95.453125 114.773438 95.226562 116.136719 96.136719 117.046875 L 107.726562 130.683594 C 108.183594 131.136719 108.863281 131.363281 109.316406 131.589844 C 110 131.589844 110.453125 131.363281 110.910156 130.910156 L 135.453125 105 C 136.363281 104.089844 136.363281 102.726562 135.453125 101.816406 C 134.546875 100.683594 133.183594 100.683594 132.273438 101.589844 Z M 132.273438 101.589844 " fill-opacity="1" fill-rule="nonzero"/></svg>