<svg xmlns="http://www.w3.org/2000/svg" xmlns:xlink="http://www.w3.org/1999/xlink" width="500" zoomAndPan="magnify" viewBox="0 0 375 374.999991" height="500" preserveAspectRatio="xMidYMid meet" version="1.0"><path fill="#a6a6a6" d="M 155.570312 144.726562 C 120.535156 164.953125 173.992188 265.164062 212.328125 243.03125 L 247.871094 304.59375 C 231.695312 313.933594 218.003906 319.820312 199.253906 309.101562 C 147.1875 279.335938 89.871094 180.109375 91.507812 120.917969 C 92.074219 100.359375 104.183594 92.304688 120.027344 83.160156 L 155.570312 144.722656 Z M 155.570312 144.726562 " fill-opacity="1" fill-rule="evenodd"/><path fill="#a6a6a6" d="M 170.265625 143.050781 C 166.480469 145.238281 161.609375 143.933594 159.421875 140.148438 L 125.914062 82.109375 C 123.726562 78.324219 125.03125 73.453125 128.816406 71.265625 L 146.429688 61.097656 C 150.214844 58.914062 155.085938 60.21875 157.273438 64.003906 L 190.78125 122.042969 C 192.964844 125.828125 191.660156 130.699219 187.875 132.882812 Z M 170.265625 143.050781 " fill-opacity="1" fill-rule="evenodd"/><path fill="#a6a6a6" d="M 261.808594 301.609375 C 258.023438 303.796875 253.152344 302.492188 250.964844 298.707031 L 217.457031 240.667969 C 215.269531 236.878906 216.574219 232.007812 220.359375 229.824219 L 237.972656 219.65625 C 241.757812 217.46875 246.628906 218.777344 248.816406 222.5625 L 282.324219 280.601562 C 284.507812 284.386719 283.203125 289.257812 279.417969 291.441406 Z M 261.808594 301.609375 " fill-opacity="1" fill-rule="evenodd"/><path fill="#a6a6a6" d="M 187.441406 0 L 187.445312 0 L 187.445312 0.0429688 C 239.222656 0.0429688 286.082031 21.011719 319.976562 54.90625 C 353.867188 88.804688 374.835938 135.660156 374.835938 187.4375 L 374.882812 187.4375 L 374.882812 187.445312 L 374.835938 187.445312 C 374.835938 239.226562 353.867188 286.085938 319.972656 319.976562 C 286.078125 353.867188 239.222656 374.839844 187.441406 374.839844 L 187.441406 374.882812 L 187.433594 374.882812 L 187.433594 374.839844 C 135.65625 374.839844 88.796875 353.871094 54.902344 319.976562 C 21.011719 286.078125 0.0429688 239.222656 0.0429688 187.445312 L -0.00390625 187.445312 L -0.00390625 187.4375 L 0.0429688 187.4375 C 0.0429688 135.65625 21.011719 88.796875 54.90625 54.90625 C 88.800781 21.015625 135.65625 0.046875 187.4375 0.0429688 L 187.4375 0 Z M 187.445312 22.355469 L 187.445312 22.402344 L 187.4375 22.402344 L 187.4375 22.355469 C 141.902344 22.359375 100.640625 40.851562 70.75 70.746094 C 40.859375 100.636719 22.359375 141.90625 22.359375 187.4375 L 22.402344 187.4375 L 22.402344 187.445312 L 22.359375 187.445312 C 22.359375 232.980469 40.855469 274.242188 70.746094 304.132812 C 100.640625 334.023438 141.90625 352.523438 187.441406 352.523438 L 187.441406 352.480469 L 187.449219 352.480469 L 187.449219 352.523438 C 232.984375 352.523438 274.246094 334.027344 304.136719 304.136719 C 334.027344 274.242188 352.527344 232.976562 352.527344 187.441406 L 352.480469 187.441406 L 352.480469 187.433594 L 352.527344 187.433594 C 352.523438 141.898438 334.03125 100.636719 304.140625 70.746094 C 274.246094 40.855469 232.980469 22.355469 187.445312 22.355469 Z M 187.445312 22.355469 " fill-opacity="1" fill-rule="nonzero"/></svg>