<svg xmlns="http://www.w3.org/2000/svg" xmlns:xlink="http://www.w3.org/1999/xlink" width="200" zoomAndPan="magnify" viewBox="0 0 150 149.999998" height="200" preserveAspectRatio="xMidYMid meet" version="1.0"><defs><clipPath id="e622decc78"><path d="M 10.636719 0 L 139.636719 0 L 139.636719 150 L 10.636719 150 Z M 10.636719 0 " clip-rule="nonzero"/></clipPath></defs><g clip-path="url(#e622decc78)"><path fill="#000000" d="M 139.519531 38.203125 C 139.519531 38.1875 139.519531 38.175781 139.515625 38.160156 C 139.515625 38.132812 139.511719 38.105469 139.511719 38.074219 C 139.507812 38.023438 139.507812 37.976562 139.5 37.925781 C 139.496094 37.902344 139.492188 37.882812 139.492188 37.855469 C 139.484375 37.800781 139.476562 37.746094 139.460938 37.691406 C 139.457031 37.675781 139.453125 37.65625 139.449219 37.640625 C 139.433594 37.582031 139.417969 37.523438 139.398438 37.460938 C 139.398438 37.453125 139.394531 37.441406 139.390625 37.429688 C 139.367188 37.367188 139.34375 37.300781 139.316406 37.242188 C 139.3125 37.230469 139.308594 37.21875 139.304688 37.207031 C 139.273438 37.148438 139.242188 37.089844 139.214844 37.027344 C 139.210938 37.023438 139.210938 37.019531 139.207031 37.019531 C 139.203125 37.011719 139.199219 37.007812 139.191406 37 C 139.144531 36.925781 139.101562 36.851562 139.046875 36.785156 C 139.035156 36.765625 139.023438 36.753906 139.011719 36.734375 C 138.953125 36.660156 138.890625 36.585938 138.828125 36.523438 C 138.816406 36.511719 138.800781 36.5 138.789062 36.492188 C 138.738281 36.441406 138.683594 36.394531 138.628906 36.351562 C 138.589844 36.324219 138.558594 36.296875 138.519531 36.269531 C 138.488281 36.246094 138.460938 36.230469 138.429688 36.210938 C 138.398438 36.191406 138.371094 36.164062 138.335938 36.148438 L 76.339844 0.429688 C 75.574219 -0.0117188 74.660156 0.0195312 73.949219 0.433594 L 11.949219 36.152344 C 11.136719 36.621094 10.710938 37.492188 10.765625 38.363281 L 10.765625 109.648438 C 10.765625 110.464844 11.195312 111.265625 11.960938 111.703125 L 73.765625 147.308594 C 73.773438 147.3125 73.777344 147.316406 73.785156 147.320312 C 73.871094 147.378906 73.957031 147.429688 74.050781 147.480469 C 74.070312 147.492188 74.09375 147.503906 74.113281 147.511719 C 74.199219 147.550781 74.285156 147.585938 74.375 147.617188 C 74.390625 147.621094 74.40625 147.628906 74.421875 147.632812 C 74.523438 147.667969 74.625 147.6875 74.730469 147.707031 C 74.757812 147.710938 74.785156 147.714844 74.808594 147.71875 C 74.917969 147.734375 75.03125 147.746094 75.144531 147.746094 C 75.144531 147.746094 75.144531 147.746094 75.148438 147.746094 C 75.265625 147.746094 75.371094 147.734375 75.484375 147.71875 C 75.511719 147.714844 75.535156 147.710938 75.558594 147.707031 C 75.667969 147.6875 75.773438 147.667969 75.875 147.632812 C 75.890625 147.628906 75.902344 147.621094 75.914062 147.617188 C 76.003906 147.589844 76.09375 147.550781 76.183594 147.511719 C 76.203125 147.5 76.222656 147.492188 76.246094 147.480469 C 76.339844 147.429688 76.425781 147.378906 76.511719 147.320312 C 76.519531 147.316406 76.523438 147.3125 76.53125 147.308594 L 97.492188 135.230469 C 98.652344 137.316406 99.789062 139.320312 100.839844 141.175781 C 102.460938 144.03125 103.867188 146.519531 104.851562 148.390625 C 105.070312 148.808594 105.410156 149.164062 105.863281 149.398438 C 107.023438 150.003906 108.457031 149.554688 109.066406 148.390625 C 110.042969 146.535156 111.445312 144.058594 113.054688 141.214844 C 116.632812 134.890625 121.210938 126.804688 124.410156 119.726562 L 138.339844 111.703125 C 139.105469 111.265625 139.53125 110.46875 139.53125 109.648438 Z M 75.144531 71.1875 L 73.367188 70.160156 L 17.902344 38.207031 L 35.03125 28.335938 L 92.273438 61.316406 L 85.253906 65.363281 Z M 54.480469 17.136719 L 111.722656 50.109375 L 97.035156 58.570312 L 39.792969 25.597656 Z M 99.816406 62.644531 C 104.578125 59.890625 109.335938 57.121094 114.089844 54.351562 L 114.089844 64.230469 L 99.816406 72.449219 Z M 75.144531 5.226562 L 132.390625 38.207031 L 116.472656 47.375 L 59.226562 14.398438 Z M 15.523438 42.316406 L 69.871094 73.621094 L 72.761719 75.285156 L 72.761719 141.25 L 15.519531 108.273438 Z M 108.910156 138.886719 L 106.953125 142.359375 L 104.964844 138.835938 C 99.082031 128.453125 90.414062 113.152344 90.414062 107.128906 C 90.414062 102.453125 92.265625 98.226562 95.265625 95.175781 C 98.253906 92.136719 102.386719 90.25 106.953125 90.25 C 111.515625 90.25 115.648438 92.136719 118.636719 95.175781 C 121.636719 98.226562 123.492188 102.449219 123.492188 107.128906 C 123.492188 109.332031 122.316406 112.800781 120.546875 116.8125 C 120.445312 116.980469 120.367188 117.160156 120.308594 117.34375 C 117.242188 124.175781 112.539062 132.480469 108.910156 138.886719 Z M 127.1875 112.640625 C 127.863281 110.507812 128.261719 108.621094 128.261719 107.125 C 128.261719 101.164062 125.878906 95.761719 122.03125 91.84375 C 118.171875 87.917969 112.839844 85.488281 106.953125 85.488281 C 101.066406 85.488281 95.734375 87.917969 91.875 91.84375 C 88.023438 95.761719 85.644531 101.164062 85.644531 107.125 C 85.644531 112.324219 90.300781 122.011719 95.199219 131.070312 L 77.53125 141.246094 L 77.53125 75.304688 C 83.375 72.054688 89.214844 68.738281 95.042969 65.386719 L 95.042969 76.558594 C 95.042969 77.875 96.113281 78.941406 97.429688 78.941406 C 97.945312 78.941406 98.417969 78.78125 98.808594 78.503906 L 117.65625 67.644531 C 118.421875 67.207031 118.847656 66.410156 118.847656 65.589844 L 118.859375 65.589844 L 118.859375 51.566406 C 124.167969 48.46875 129.472656 45.382812 134.769531 42.316406 L 134.773438 108.269531 Z M 36.785156 110.832031 C 36.132812 111.964844 34.679688 112.359375 33.542969 111.707031 L 21.167969 104.582031 C 20.035156 103.929688 19.640625 102.480469 20.292969 101.34375 C 20.945312 100.210938 22.398438 99.816406 23.535156 100.46875 L 35.910156 107.59375 C 37.046875 108.25 37.4375 109.695312 36.785156 110.832031 Z M 106.953125 96.363281 C 104.253906 96.363281 101.808594 97.476562 100.039062 99.28125 C 98.277344 101.070312 97.1875 103.539062 97.1875 106.257812 C 97.1875 108.96875 98.277344 111.441406 100.039062 113.234375 C 101.808594 115.035156 104.253906 116.148438 106.953125 116.148438 C 109.648438 116.148438 112.097656 115.035156 113.863281 113.234375 C 115.625 111.441406 116.714844 108.972656 116.714844 106.257812 C 116.714844 103.542969 115.625 101.070312 113.863281 99.28125 C 112.097656 97.476562 109.648438 96.363281 106.953125 96.363281 Z M 110.472656 109.902344 C 109.574219 110.816406 108.328125 111.386719 106.953125 111.386719 C 105.578125 111.386719 104.328125 110.816406 103.429688 109.902344 C 102.523438 108.976562 101.957031 107.6875 101.957031 106.257812 C 101.957031 104.824219 102.519531 103.535156 103.429688 102.609375 C 104.328125 101.695312 105.578125 101.125 106.953125 101.125 C 108.328125 101.125 109.574219 101.695312 110.472656 102.609375 C 111.382812 103.535156 111.945312 104.824219 111.945312 106.257812 C 111.945312 107.6875 111.382812 108.972656 110.472656 109.902344 Z M 110.472656 109.902344 " fill-opacity="1" fill-rule="nonzero"/></g></svg>