<svg xmlns="http://www.w3.org/2000/svg" xmlns:xlink="http://www.w3.org/1999/xlink" width="400" zoomAndPan="magnify" viewBox="0 0 300 299.999988" height="400" preserveAspectRatio="xMidYMid meet" version="1.0"><defs><clipPath id="1963e67ec0"><path d="M 42.9375 0 L 257.4375 0 L 257.4375 300 L 42.9375 300 Z M 42.9375 0 " clip-rule="nonzero"/></clipPath></defs><g clip-path="url(#1963e67ec0)"><path fill="#737373" d="M 166.660156 1.082031 C 161.191406 0.421875 155.699219 0.101562 150.1875 0.113281 L 150.1875 0.167969 C 144.675781 0.152344 139.183594 0.476562 133.714844 1.136719 C 79.128906 7.816406 42.9375 59.085938 42.9375 110.765625 C 42.9375 144.15625 59.699219 174.96875 76.824219 203.488281 C 94.386719 232.21875 113.703125 259.71875 134.769531 285.996094 C 138.691406 290.957031 144.027344 299.503906 150.1875 299.886719 L 150.1875 299.832031 C 156.347656 299.449219 161.683594 290.90625 165.605469 285.941406 C 186.671875 259.667969 205.988281 232.164062 223.550781 203.433594 C 240.675781 174.914062 257.4375 144.113281 257.4375 110.714844 C 257.4375 59.035156 221.246094 7.761719 166.660156 1.082031 Z M 150.1875 198.179688 C 148.695312 198.179688 147.203125 198.140625 145.714844 198.070312 C 144.222656 197.996094 142.738281 197.886719 141.253906 197.738281 C 139.765625 197.59375 138.285156 197.410156 136.8125 197.191406 C 135.335938 196.972656 133.867188 196.71875 132.402344 196.429688 C 130.9375 196.140625 129.484375 195.8125 128.035156 195.449219 C 126.589844 195.089844 125.152344 194.691406 123.722656 194.257812 C 122.296875 193.828125 120.878906 193.359375 119.476562 192.859375 C 118.070312 192.355469 116.679688 191.820312 115.300781 191.25 C 113.921875 190.679688 112.558594 190.078125 111.210938 189.441406 C 109.863281 188.804688 108.53125 188.132812 107.214844 187.433594 C 105.898438 186.730469 104.601562 185.996094 103.320312 185.230469 C 102.039062 184.464844 100.78125 183.667969 99.539062 182.839844 C 98.300781 182.015625 97.082031 181.15625 95.882812 180.269531 C 94.683594 179.382812 93.507812 178.464844 92.355469 177.519531 C 91.203125 176.578125 90.070312 175.605469 88.964844 174.605469 C 87.859375 173.605469 86.78125 172.578125 85.726562 171.523438 C 84.671875 170.472656 83.640625 169.390625 82.640625 168.289062 C 81.636719 167.183594 80.664062 166.058594 79.71875 164.90625 C 78.769531 163.753906 77.855469 162.582031 76.964844 161.386719 C 76.078125 160.1875 75.21875 158.972656 74.386719 157.734375 C 73.558594 156.496094 72.761719 155.238281 71.996094 153.960938 C 71.226562 152.683594 70.492188 151.386719 69.789062 150.074219 C 69.085938 148.761719 68.414062 147.429688 67.777344 146.082031 C 67.140625 144.738281 66.535156 143.375 65.964844 142 C 65.394531 140.625 64.855469 139.234375 64.355469 137.832031 C 63.851562 136.429688 63.382812 135.015625 62.949219 133.589844 C 62.515625 132.167969 62.121094 130.730469 61.757812 129.285156 C 61.394531 127.84375 61.066406 126.390625 60.777344 124.929688 C 60.484375 123.46875 60.230469 122 60.011719 120.527344 C 59.792969 119.054688 59.609375 117.578125 59.464844 116.09375 C 59.316406 114.613281 59.207031 113.128906 59.136719 111.640625 C 59.0625 110.152344 59.023438 108.664062 59.023438 107.175781 C 59.023438 105.6875 59.0625 104.195312 59.136719 102.710938 C 59.207031 101.222656 59.316406 99.738281 59.464844 98.253906 C 59.609375 96.773438 59.792969 95.296875 60.011719 93.820312 C 60.230469 92.347656 60.484375 90.882812 60.777344 89.421875 C 61.066406 87.960938 61.394531 86.507812 61.757812 85.0625 C 62.121094 83.617188 62.515625 82.183594 62.949219 80.757812 C 63.382812 79.332031 63.851562 77.917969 64.355469 76.515625 C 64.855469 75.113281 65.394531 73.726562 65.964844 72.347656 C 66.535156 70.972656 67.140625 69.613281 67.777344 68.265625 C 68.414062 66.917969 69.085938 65.589844 69.789062 64.277344 C 70.492188 62.964844 71.226562 61.667969 71.996094 60.390625 C 72.761719 59.113281 73.558594 57.855469 74.386719 56.617188 C 75.21875 55.378906 76.078125 54.160156 76.964844 52.964844 C 77.855469 51.769531 78.769531 50.59375 79.71875 49.441406 C 80.664062 48.292969 81.636719 47.164062 82.640625 46.0625 C 83.640625 44.957031 84.671875 43.878906 85.726562 42.824219 C 86.78125 41.773438 87.859375 40.746094 88.964844 39.746094 C 90.070312 38.746094 91.203125 37.773438 92.355469 36.828125 C 93.507812 35.882812 94.683594 34.96875 95.882812 34.082031 C 97.082031 33.195312 98.300781 32.335938 99.539062 31.507812 C 100.78125 30.679688 102.039062 29.882812 103.320312 29.117188 C 104.601562 28.351562 105.898438 27.621094 107.214844 26.917969 C 108.53125 26.214844 109.863281 25.546875 111.210938 24.910156 C 112.558594 24.273438 113.921875 23.667969 115.300781 23.097656 C 116.679688 22.527344 118.070312 21.992188 119.476562 21.492188 C 120.878906 20.988281 122.296875 20.523438 123.722656 20.089844 C 125.152344 19.65625 126.589844 19.261719 128.035156 18.898438 C 129.484375 18.539062 130.9375 18.210938 132.402344 17.921875 C 133.867188 17.628906 135.335938 17.375 136.8125 17.15625 C 138.285156 16.9375 139.765625 16.757812 141.253906 16.609375 C 142.738281 16.464844 144.222656 16.355469 145.714844 16.28125 C 147.203125 16.207031 148.695312 16.171875 150.1875 16.171875 C 151.679688 16.171875 153.171875 16.207031 154.660156 16.28125 C 156.152344 16.355469 157.636719 16.464844 159.121094 16.609375 C 160.609375 16.757812 162.089844 16.9375 163.5625 17.15625 C 165.039062 17.375 166.507812 17.628906 167.972656 17.921875 C 169.4375 18.210938 170.890625 18.539062 172.339844 18.898438 C 173.785156 19.261719 175.222656 19.65625 176.652344 20.089844 C 178.078125 20.523438 179.496094 20.988281 180.898438 21.492188 C 182.304688 21.992188 183.695312 22.527344 185.074219 23.097656 C 186.453125 23.667969 187.816406 24.273438 189.164062 24.910156 C 190.511719 25.546875 191.84375 26.214844 193.160156 26.917969 C 194.476562 27.621094 195.773438 28.351562 197.054688 29.117188 C 198.335938 29.882812 199.59375 30.679688 200.835938 31.507812 C 202.074219 32.335938 203.292969 33.195312 204.492188 34.082031 C 205.691406 34.96875 206.867188 35.882812 208.019531 36.828125 C 209.171875 37.773438 210.304688 38.746094 211.410156 39.746094 C 212.515625 40.746094 213.59375 41.773438 214.648438 42.824219 C 215.703125 43.878906 216.734375 44.957031 217.734375 46.0625 C 218.738281 47.164062 219.710938 48.292969 220.65625 49.441406 C 221.601562 50.59375 222.519531 51.769531 223.410156 52.964844 C 224.296875 54.160156 225.15625 55.378906 225.984375 56.617188 C 226.816406 57.855469 227.613281 59.113281 228.378906 60.390625 C 229.148438 61.667969 229.882812 62.964844 230.585938 64.277344 C 231.289062 65.589844 231.960938 66.917969 232.597656 68.265625 C 233.234375 69.613281 233.839844 70.972656 234.410156 72.347656 C 234.980469 73.726562 235.519531 75.113281 236.019531 76.515625 C 236.523438 77.917969 236.992188 79.332031 237.425781 80.757812 C 237.859375 82.183594 238.253906 83.617188 238.617188 85.0625 C 238.980469 86.507812 239.308594 87.960938 239.597656 89.421875 C 239.890625 90.882812 240.144531 92.347656 240.363281 93.820312 C 240.582031 95.296875 240.765625 96.773438 240.910156 98.253906 C 241.058594 99.738281 241.167969 101.222656 241.238281 102.710938 C 241.3125 104.195312 241.351562 105.6875 241.351562 107.175781 C 241.351562 108.664062 241.3125 110.152344 241.238281 111.640625 C 241.167969 113.128906 241.058594 114.613281 240.910156 116.09375 C 240.765625 117.578125 240.582031 119.054688 240.363281 120.527344 C 240.144531 122 239.890625 123.46875 239.597656 124.929688 C 239.308594 126.390625 238.980469 127.84375 238.617188 129.285156 C 238.253906 130.730469 237.859375 132.167969 237.425781 133.589844 C 236.992188 135.015625 236.523438 136.429688 236.019531 137.832031 C 235.519531 139.234375 234.980469 140.625 234.410156 142 C 233.839844 143.375 233.234375 144.738281 232.597656 146.082031 C 231.960938 147.429688 231.289062 148.761719 230.585938 150.074219 C 229.882812 151.386719 229.148438 152.683594 228.378906 153.960938 C 227.613281 155.238281 226.816406 156.496094 225.988281 157.734375 C 225.15625 158.972656 224.296875 160.1875 223.410156 161.386719 C 222.519531 162.582031 221.605469 163.753906 220.65625 164.90625 C 219.710938 166.058594 218.738281 167.183594 217.734375 168.289062 C 216.734375 169.390625 215.703125 170.472656 214.648438 171.523438 C 213.59375 172.578125 212.515625 173.605469 211.410156 174.605469 C 210.304688 175.605469 209.171875 176.578125 208.019531 177.519531 C 206.867188 178.464844 205.691406 179.382812 204.492188 180.269531 C 203.292969 181.15625 202.074219 182.015625 200.835938 182.839844 C 199.59375 183.667969 198.335938 184.464844 197.054688 185.230469 C 195.773438 185.996094 194.476562 186.730469 193.160156 187.433594 C 191.84375 188.132812 190.511719 188.804688 189.164062 189.441406 C 187.816406 190.078125 186.453125 190.679688 185.074219 191.25 C 183.695312 191.820312 182.304688 192.355469 180.898438 192.859375 C 179.496094 193.359375 178.078125 193.828125 176.652344 194.257812 C 175.222656 194.691406 173.785156 195.089844 172.339844 195.449219 C 170.890625 195.8125 169.4375 196.140625 167.972656 196.429688 C 166.507812 196.71875 165.039062 196.972656 163.5625 197.191406 C 162.089844 197.410156 160.609375 197.59375 159.121094 197.738281 C 157.636719 197.886719 156.152344 197.996094 154.660156 198.070312 C 153.171875 198.140625 151.679688 198.179688 150.1875 198.179688 Z M 150.1875 198.179688 " fill-opacity="1" fill-rule="nonzero"/></g><path fill="#737373" d="M 214.539062 77.367188 L 214.539062 141.433594 C 214.539062 142.277344 214.453125 143.113281 214.289062 143.941406 C 214.125 144.769531 213.882812 145.570312 213.558594 146.351562 C 213.234375 147.128906 212.839844 147.871094 212.367188 148.574219 C 211.898438 149.273438 211.367188 149.921875 210.769531 150.519531 C 210.171875 151.117188 209.519531 151.648438 208.816406 152.117188 C 208.113281 152.585938 207.375 152.980469 206.59375 153.304688 C 205.8125 153.628906 205.007812 153.871094 204.179688 154.035156 C 203.347656 154.199219 202.511719 154.28125 201.667969 154.28125 L 98.707031 154.28125 C 97.863281 154.28125 97.027344 154.199219 96.195312 154.035156 C 95.367188 153.871094 94.5625 153.628906 93.78125 153.304688 C 93 152.980469 92.261719 152.585938 91.558594 152.117188 C 90.855469 151.648438 90.203125 151.117188 89.605469 150.519531 C 89.007812 149.921875 88.476562 149.273438 88.007812 148.574219 C 87.535156 147.871094 87.140625 147.128906 86.816406 146.351562 C 86.492188 145.570312 86.25 144.769531 86.085938 143.941406 C 85.917969 143.113281 85.835938 142.277344 85.835938 141.433594 L 85.835938 77.367188 L 138.175781 121.136719 C 139.015625 121.824219 139.910156 122.433594 140.855469 122.96875 C 141.800781 123.5 142.785156 123.949219 143.808594 124.316406 C 144.832031 124.679688 145.878906 124.957031 146.953125 125.140625 C 148.023438 125.324219 149.101562 125.417969 150.1875 125.417969 C 151.273438 125.417969 152.351562 125.324219 153.421875 125.140625 C 154.496094 124.957031 155.542969 124.679688 156.566406 124.316406 C 157.589844 123.949219 158.574219 123.5 159.519531 122.96875 C 160.464844 122.433594 161.359375 121.824219 162.199219 121.136719 Z M 214.539062 77.367188 " fill-opacity="1" fill-rule="nonzero"/><path fill="#737373" d="M 156.707031 114.566406 L 213.015625 67.460938 C 213.355469 67.164062 213.644531 66.820312 213.875 66.433594 C 214.109375 66.042969 214.273438 65.628906 214.375 65.1875 C 214.472656 64.746094 214.5 64.300781 214.457031 63.851562 C 214.414062 63.402344 214.300781 62.96875 214.117188 62.554688 C 213.9375 62.140625 213.695312 61.765625 213.390625 61.429688 C 213.089844 61.09375 212.742188 60.8125 212.347656 60.585938 C 211.957031 60.359375 211.539062 60.199219 211.09375 60.109375 C 210.652344 60.015625 210.203125 59.996094 209.753906 60.046875 L 90.625 60.046875 C 90.175781 59.996094 89.730469 60.015625 89.285156 60.109375 C 88.84375 60.199219 88.425781 60.359375 88.03125 60.585938 C 87.636719 60.8125 87.292969 61.09375 86.988281 61.429688 C 86.6875 61.765625 86.445312 62.140625 86.261719 62.554688 C 86.078125 62.96875 85.964844 63.402344 85.921875 63.851562 C 85.878906 64.300781 85.90625 64.746094 86.007812 65.1875 C 86.105469 65.628906 86.273438 66.042969 86.503906 66.433594 C 86.738281 66.820312 87.023438 67.164062 87.367188 67.460938 L 143.671875 114.566406 C 144.128906 114.9375 144.617188 115.265625 145.128906 115.550781 C 145.644531 115.839844 146.179688 116.082031 146.734375 116.277344 C 147.289062 116.472656 147.855469 116.621094 148.4375 116.71875 C 149.015625 116.820312 149.601562 116.871094 150.191406 116.871094 C 150.777344 116.871094 151.363281 116.820312 151.945312 116.71875 C 152.523438 116.621094 153.09375 116.472656 153.648438 116.277344 C 154.203125 116.082031 154.738281 115.839844 155.25 115.550781 C 155.765625 115.265625 156.25 114.9375 156.707031 114.566406 Z M 156.707031 114.566406 " fill-opacity="1" fill-rule="nonzero"/></svg>