<svg xmlns="http://www.w3.org/2000/svg" xmlns:xlink="http://www.w3.org/1999/xlink" width="200" zoomAndPan="magnify" viewBox="0 0 150 149.999998" height="200" preserveAspectRatio="xMidYMid meet" version="1.0"><path fill="#9d3818" d="M 138.699219 75.65625 C 146.070312 89.832031 143.214844 94.8125 130.125 109.742188 C 117.039062 124.671875 111.925781 127.539062 98.386719 120.601562 C 84.851562 113.660156 66.515625 71.683594 67.851562 69.171875 C 69.1875 66.664062 84.414062 42.175781 84.414062 42.175781 L 125.914062 47.453125 Z M 138.699219 75.65625 " fill-opacity="1" fill-rule="nonzero"/><path fill="#ffb59a" d="M 136.496094 91.53125 C 135.433594 100.074219 124.648438 102.726562 118.285156 100.414062 C 114.929688 100.542969 112.003906 147.15625 67.855469 144.429688 C 41.730469 142.820312 33.257812 112.757812 33.257812 99.5625 C 33.257812 89.3125 32.628906 67.910156 32.335938 58.875 C 32.253906 56.269531 32.207031 54.691406 32.207031 54.691406 C 58.53125 61.023438 106.210938 62.089844 106.210938 62.089844 C 106.210938 62.089844 106.035156 73.050781 106.632812 81.96875 C 106.992188 87.324219 107.632812 91.929688 108.765625 93.003906 C 111.769531 95.867188 110.5 82.824219 121.214844 78.746094 C 131.925781 74.664062 137.566406 82.988281 136.496094 91.53125 Z M 136.496094 91.53125 " fill-opacity="1" fill-rule="nonzero"/><path fill="#ff7961" d="M 106.628906 81.96875 C 103.175781 82.304688 99.761719 82.058594 96.394531 81.234375 C 82.742188 77.960938 55.195312 67.382812 32.332031 58.875 C 32.25 56.269531 32.207031 54.691406 32.207031 54.691406 C 58.527344 61.023438 106.207031 62.089844 106.207031 62.089844 C 106.207031 62.089844 106.035156 73.050781 106.628906 81.96875 Z M 106.628906 81.96875 " fill-opacity="1" fill-rule="nonzero"/><path fill="#ff5b02" d="M 138.699219 75.660156 C 128.917969 69.265625 115.03125 64.355469 100.414062 60.617188 C 66.675781 51.992188 29.042969 49.570312 29.042969 49.570312 C 39.75 14.425781 64.238281 3.179688 90.621094 6.476562 C 95.144531 7.058594 99.589844 7.996094 103.960938 9.292969 C 135.078125 18.503906 149.984375 39.308594 138.699219 75.660156 Z M 138.699219 75.660156 " fill-opacity="1" fill-rule="nonzero"/><path fill="#ef4502" d="M 138.699219 75.660156 C 128.917969 69.265625 115.03125 64.355469 100.414062 60.617188 C 109.183594 30.753906 112.199219 15.03125 90.621094 6.476562 C 95.140625 7.058594 99.585938 7.996094 103.957031 9.292969 C 135.078125 18.503906 149.984375 39.308594 138.699219 75.660156 Z M 138.699219 75.660156 " fill-opacity="1" fill-rule="nonzero"/><path fill="#3c4154" d="M 29.042969 49.566406 C 13.25 51.675781 0.0117188 61.027344 1.214844 63.441406 C 2.417969 65.855469 6.703125 61.589844 27.839844 59.671875 C 48.976562 57.757812 57.175781 67.0625 72.664062 66.757812 C 88.15625 66.457031 115.355469 66.460938 123.265625 67.890625 C 87.257812 54.996094 52.808594 42.328125 29.042969 49.566406 Z M 29.042969 49.566406 " fill-opacity="1" fill-rule="nonzero"/></svg>