<svg xmlns="http://www.w3.org/2000/svg" xmlns:xlink="http://www.w3.org/1999/xlink" width="200" zoomAndPan="magnify" viewBox="0 0 150 149.999998" height="200" preserveAspectRatio="xMidYMid meet" version="1.0"><defs><clipPath id="e14c15aa7a"><path d="M 3.546875 72 L 146.796875 72 L 146.796875 150 L 3.546875 150 Z M 3.546875 72 " clip-rule="nonzero"/></clipPath></defs><g clip-path="url(#e14c15aa7a)"><path fill="#231f20" d="M 123.609375 81.640625 L 111.4375 72.941406 L 107.277344 78.75 L 119.449219 87.480469 C 132.082031 96.484375 139.601562 111.117188 139.601562 126.609375 L 139.601562 139.335938 C 139.601562 141.300781 138 142.898438 136.027344 142.898438 L 14.3125 142.898438 C 12.34375 142.898438 10.738281 141.300781 10.738281 139.335938 L 10.738281 125.902344 C 10.738281 110.839844 17.949219 96.453125 30.027344 87.386719 L 42.445312 78.074219 L 38.132812 72.355469 L 25.714844 81.671875 C 11.847656 92.027344 3.558594 108.566406 3.558594 125.871094 L 3.558594 139.304688 C 3.558594 145.203125 8.367188 150 14.3125 150 L 136.027344 150 C 141.941406 150 146.78125 145.203125 146.78125 139.273438 L 146.78125 126.546875 C 146.78125 108.78125 138.121094 91.996094 123.609375 81.640625 Z M 123.609375 81.640625 " fill-opacity="1" fill-rule="nonzero"/></g><path fill="#231f20" d="M 75.171875 78.566406 C 96.894531 78.566406 114.550781 60.953125 114.550781 39.28125 C 114.550781 17.613281 96.894531 0 75.171875 0 C 53.445312 0 35.792969 17.613281 35.792969 39.28125 C 35.792969 60.953125 53.445312 78.566406 75.171875 78.566406 Z M 75.171875 7.132812 C 92.917969 7.132812 107.402344 21.578125 107.402344 39.28125 C 107.402344 56.988281 92.917969 71.433594 75.171875 71.433594 C 57.421875 71.433594 42.941406 57.019531 42.941406 39.28125 C 42.941406 21.546875 57.390625 7.132812 75.171875 7.132812 Z M 75.171875 7.132812 " fill-opacity="1" fill-rule="nonzero"/></svg>