<svg xmlns="http://www.w3.org/2000/svg" xmlns:xlink="http://www.w3.org/1999/xlink" width="500" zoomAndPan="magnify" viewBox="0 0 375 374.999991" height="500" preserveAspectRatio="xMidYMid meet" version="1.0"><path fill="#92acdf" d="M 375 187.5 C 375 291.050781 291.054688 375 187.5 375 C 83.945312 375 0 291.050781 0 187.5 C 0 83.945312 83.945312 0 187.5 0 C 291.054688 0 375 83.945312 375 187.5 " fill-opacity="1" fill-rule="nonzero"/><path fill="#cedaf0" d="M 142.28125 217.105469 C 107.582031 248.746094 70.621094 246.894531 49.351562 268.179688 C 44.007812 273.515625 39.570312 284.417969 35.90625 297.84375 C 70.003906 344.605469 125.199219 375 187.5 375 C 249.796875 375 304.992188 344.605469 339.085938 297.847656 C 335.425781 284.421875 330.992188 273.515625 325.648438 268.179688 C 304.382812 246.894531 267.417969 248.746094 232.710938 217.105469 C 232.921875 216.847656 224.699219 209.082031 224.394531 209.390625 L 224.394531 189.421875 C 233.695312 176.433594 239.890625 158.8125 243.539062 141.269531 C 243.910156 142.066406 244.398438 142.617188 244.980469 142.714844 C 247.152344 143.085938 249.878906 138.09375 251.027344 131.542969 C 252.144531 125.207031 251.371094 119.839844 249.34375 119.144531 C 252.4375 103.757812 250.832031 79.199219 244.496094 60.28125 C 238.089844 41.121094 210.371094 33.140625 188.839844 32.558594 L 188.839844 32.523438 C 188.777344 32.523438 188.726562 32.523438 188.664062 32.523438 C 188.308594 32.523438 187.980469 32.523438 187.640625 32.523438 C 187.59375 32.523438 187.546875 32.523438 187.496094 32.523438 C 187.445312 32.523438 187.398438 32.523438 187.351562 32.523438 C 187.011719 32.523438 186.675781 32.523438 186.332031 32.523438 C 186.253906 32.523438 186.207031 32.523438 186.144531 32.523438 L 186.144531 32.558594 C 164.621094 33.140625 136.898438 41.121094 130.503906 60.28125 C 124.160156 79.199219 122.558594 103.757812 125.652344 119.144531 C 123.613281 119.839844 122.84375 125.207031 123.964844 131.542969 C 125.125 138.09375 127.828125 143.085938 130.011719 142.714844 C 130.601562 142.617188 131.070312 142.066406 131.453125 141.269531 C 135.101562 158.8125 141.300781 176.433594 150.601562 189.421875 L 150.601562 209.390625 C 150.292969 209.082031 142.0625 216.847656 142.28125 217.105469 " fill-opacity="1" fill-rule="nonzero"/></svg>