<svg xmlns="http://www.w3.org/2000/svg" xmlns:xlink="http://www.w3.org/1999/xlink" width="500" zoomAndPan="magnify" viewBox="0 0 375 374.999991" height="500" preserveAspectRatio="xMidYMid meet" version="1.0"><defs><clipPath id="b62aee7e5b"><path d="M 91.238281 97.035156 L 181.988281 97.035156 L 181.988281 187.785156 L 91.238281 187.785156 Z M 91.238281 97.035156 " clip-rule="nonzero"/></clipPath></defs><rect x="-37.5" width="450" fill="#ffffff" y="-37.499999" height="449.999989" fill-opacity="1"/><rect x="-37.5" width="450" fill="#ffffff" y="-37.499999" height="449.999989" fill-opacity="1"/><path fill="#5d6d7e" d="M 224.242188 245.761719 L 233.453125 254.992188 L 244.222656 265.703125 L 248.367188 269.878906 L 269.875 248.367188 L 245.765625 224.238281 Z M 224.242188 245.761719 " fill-opacity="1" fill-rule="nonzero"/><path fill="#f15540" d="M 291.792969 248.234375 L 365.96875 322.414062 C 371.546875 327.964844 375.011719 335.691406 375 344.1875 C 375 352.699219 371.550781 360.425781 365.96875 366 C 360.40625 371.5625 352.699219 375 344.1875 375 C 335.675781 375 327.976562 371.558594 322.398438 365.972656 L 248.21875 291.800781 Z M 291.792969 248.234375 " fill-opacity="1" fill-rule="nonzero"/><path fill="#ffa184" d="M 281.554688 258.484375 L 287.578125 252.445312 L 361.765625 326.632812 C 366.464844 331.320312 369.035156 337.550781 369.03125 344.1875 C 369.03125 350.847656 366.457031 357.09375 361.765625 361.78125 C 360.921875 362.597656 359.832031 363.011719 358.746094 363.011719 C 357.648438 363.011719 356.554688 362.597656 355.722656 361.765625 C 354.0625 360.09375 354.0625 357.40625 355.722656 355.75 C 358.808594 352.671875 360.507812 348.546875 360.507812 344.179688 C 360.511719 339.828125 358.820312 335.742188 355.734375 332.664062 Z M 281.554688 258.484375 " fill-opacity="1" fill-rule="nonzero"/><path fill="#34495e" d="M 248.222656 291.804688 L 291.792969 248.234375 L 288.53125 244.972656 C 286.582031 243.003906 283.890625 241.804688 280.914062 241.804688 C 277.917969 241.804688 275.230469 243.003906 273.28125 244.949219 L 244.953125 273.300781 C 243.003906 275.222656 241.792969 277.929688 241.792969 280.914062 C 241.792969 283.882812 243.003906 286.605469 244.953125 288.535156 Z M 248.222656 291.804688 " fill-opacity="1" fill-rule="nonzero"/><path fill="#34495e" d="M 0 139.277344 C 0 62.371094 62.359375 0 139.277344 0 C 216.207031 0 278.5625 62.371094 278.554688 139.277344 C 278.558594 216.210938 216.195312 278.5625 139.277344 278.585938 C 62.359375 278.5625 0 216.210938 0 139.277344 Z M 0 139.277344 " fill-opacity="1" fill-rule="nonzero"/><path fill="#5d6d7e" d="M 139.285156 263.496094 C 207.863281 263.496094 263.484375 207.882812 263.484375 139.277344 C 263.484375 70.699219 207.863281 15.085938 139.285156 15.085938 C 70.699219 15.085938 15.078125 70.699219 15.078125 139.277344 C 15.078125 207.882812 70.691406 263.496094 139.285156 263.496094 Z M 139.285156 263.496094 " fill-opacity="1" fill-rule="nonzero"/><path fill="#e6eaee" d="M 139.285156 253.546875 C 202.375 253.546875 253.542969 202.402344 253.542969 139.277344 C 253.542969 76.195312 202.375 25.023438 139.285156 25.023438 C 76.1875 25.023438 25.03125 76.195312 25.03125 139.277344 C 25.03125 202.398438 76.179688 253.546875 139.285156 253.546875 Z M 139.285156 253.546875 " fill-opacity="1" fill-rule="nonzero"/><path fill="#ffffff" d="M 142.28125 43.773438 C 140.34375 40.894531 136.996094 39.089844 133.320312 39.296875 C 117.542969 40.253906 102.644531 44.691406 89.015625 52.597656 C 84.222656 55.40625 82.585938 61.59375 85.367188 66.398438 C 88.167969 71.167969 94.359375 72.859375 99.136719 70.027344 C 110 63.757812 121.890625 60.195312 134.503906 59.4375 C 140.042969 59.148438 144.304688 54.363281 143.957031 48.832031 C 143.898438 46.914062 143.25 45.191406 142.28125 43.773438 Z M 142.28125 43.773438 " fill-opacity="1" fill-rule="nonzero"/><path fill="#ffffff" d="M 77.59375 76.914062 C 77.066406 76.105469 76.367188 75.363281 75.59375 74.71875 C 71.261719 71.1875 64.921875 71.875 61.421875 76.183594 C 51.128906 88.824219 44.046875 103.992188 40.925781 120.128906 C 37.226562 139.289062 39.160156 158.902344 46.507812 176.890625 C 48.652344 182.070312 54.539062 184.5 59.679688 182.386719 C 64.84375 180.289062 67.292969 174.417969 65.179688 169.238281 C 59.324219 154.90625 57.800781 139.238281 60.777344 123.949219 C 63.214844 111.070312 68.871094 98.964844 77.085938 88.890625 C 79.9375 85.386719 80.015625 80.457031 77.59375 76.914062 Z M 77.59375 76.914062 " fill-opacity="1" fill-rule="nonzero"/><g clip-path="url(#b62aee7e5b)"><path fill="#f84442" d="M 181.988281 142.410156 C 181.988281 143.894531 181.914062 145.378906 181.769531 146.859375 C 181.625 148.335938 181.40625 149.804688 181.117188 151.261719 C 180.828125 152.71875 180.464844 154.160156 180.035156 155.582031 C 179.601562 157.003906 179.101562 158.402344 178.535156 159.773438 C 177.964844 161.148438 177.332031 162.488281 176.628906 163.800781 C 175.929688 165.109375 175.167969 166.382812 174.339844 167.621094 C 173.515625 168.855469 172.632812 170.046875 171.6875 171.195312 C 170.746094 172.34375 169.75 173.445312 168.699219 174.496094 C 167.648438 175.546875 166.546875 176.542969 165.398438 177.484375 C 164.25 178.429688 163.058594 179.3125 161.824219 180.136719 C 160.585938 180.964844 159.3125 181.726562 158.003906 182.425781 C 156.691406 183.128906 155.351562 183.761719 153.976562 184.332031 C 152.605469 184.898438 151.207031 185.398438 149.785156 185.832031 C 148.363281 186.261719 146.921875 186.625 145.464844 186.914062 C 144.007812 187.203125 142.539062 187.421875 141.0625 187.566406 C 139.582031 187.710938 138.097656 187.785156 136.613281 187.785156 C 135.128906 187.785156 133.644531 187.710938 132.164062 187.566406 C 130.6875 187.421875 129.21875 187.203125 127.761719 186.914062 C 126.304688 186.625 124.863281 186.261719 123.441406 185.832031 C 122.019531 185.398438 120.621094 184.898438 119.25 184.332031 C 117.875 183.761719 116.535156 183.128906 115.222656 182.425781 C 113.914062 181.726562 112.640625 180.964844 111.402344 180.136719 C 110.167969 179.3125 108.976562 178.429688 107.828125 177.484375 C 106.679688 176.542969 105.578125 175.546875 104.527344 174.496094 C 103.476562 173.445312 102.480469 172.34375 101.539062 171.195312 C 100.59375 170.046875 99.710938 168.855469 98.886719 167.621094 C 98.058594 166.382812 97.296875 165.109375 96.597656 163.800781 C 95.894531 162.488281 95.261719 161.148438 94.691406 159.773438 C 94.125 158.402344 93.625 157.003906 93.191406 155.582031 C 92.761719 154.160156 92.398438 152.71875 92.109375 151.261719 C 91.820312 149.804688 91.601562 148.335938 91.457031 146.859375 C 91.3125 145.378906 91.238281 143.894531 91.238281 142.410156 C 91.238281 140.925781 91.3125 139.441406 91.457031 137.960938 C 91.601562 136.484375 91.820312 135.015625 92.109375 133.558594 C 92.398438 132.101562 92.761719 130.660156 93.191406 129.238281 C 93.625 127.816406 94.125 126.417969 94.691406 125.046875 C 95.261719 123.671875 95.894531 122.332031 96.597656 121.019531 C 97.296875 119.710938 98.058594 118.4375 98.886719 117.199219 C 99.710938 115.964844 100.59375 114.773438 101.539062 113.625 C 102.480469 112.476562 103.476562 111.375 104.527344 110.324219 C 105.578125 109.273438 106.679688 108.277344 107.828125 107.335938 C 108.976562 106.390625 110.167969 105.507812 111.402344 104.683594 C 112.640625 103.855469 113.914062 103.09375 115.222656 102.394531 C 116.535156 101.691406 117.875 101.058594 119.25 100.488281 C 120.621094 99.921875 122.019531 99.421875 123.441406 98.988281 C 124.863281 98.558594 126.304688 98.195312 127.761719 97.90625 C 129.21875 97.617188 130.6875 97.398438 132.164062 97.253906 C 133.644531 97.109375 135.128906 97.035156 136.613281 97.035156 C 138.097656 97.035156 139.582031 97.109375 141.0625 97.253906 C 142.539062 97.398438 144.007812 97.617188 145.464844 97.90625 C 146.921875 98.195312 148.363281 98.558594 149.785156 98.988281 C 151.207031 99.421875 152.605469 99.921875 153.976562 100.488281 C 155.351562 101.058594 156.691406 101.691406 158.003906 102.394531 C 159.3125 103.09375 160.585938 103.855469 161.824219 104.683594 C 163.058594 105.507812 164.25 106.390625 165.398438 107.335938 C 166.546875 108.277344 167.648438 109.273438 168.699219 110.324219 C 169.75 111.375 170.746094 112.476562 171.6875 113.625 C 172.632812 114.773438 173.515625 115.964844 174.339844 117.199219 C 175.167969 118.4375 175.929688 119.710938 176.628906 121.019531 C 177.332031 122.332031 177.964844 123.671875 178.535156 125.046875 C 179.101562 126.417969 179.601562 127.816406 180.035156 129.238281 C 180.464844 130.660156 180.828125 132.101562 181.117188 133.558594 C 181.40625 135.015625 181.625 136.484375 181.769531 137.960938 C 181.914062 139.441406 181.988281 140.925781 181.988281 142.410156 Z M 181.988281 142.410156 " fill-opacity="1" fill-rule="nonzero"/></g><path fill="#ffffff" d="M 136.613281 133.914062 L 121.660156 118.960938 C 119.316406 116.617188 115.507812 116.617188 113.164062 118.960938 C 110.820312 121.304688 110.820312 125.113281 113.164062 127.457031 L 128.117188 142.410156 L 113.164062 157.363281 C 110.820312 159.707031 110.820312 163.515625 113.164062 165.859375 C 115.507812 168.203125 119.316406 168.203125 121.660156 165.859375 L 136.613281 150.90625 L 151.566406 165.859375 C 153.910156 168.203125 157.71875 168.203125 160.0625 165.859375 C 162.40625 163.515625 162.40625 159.707031 160.0625 157.363281 L 145.109375 142.410156 L 160.0625 127.457031 C 162.40625 125.113281 162.40625 121.304688 160.0625 118.960938 C 157.71875 116.617188 153.910156 116.617188 151.566406 118.960938 Z M 136.613281 133.914062 " fill-opacity="1" fill-rule="evenodd"/></svg>