<svg xmlns="http://www.w3.org/2000/svg" xmlns:xlink="http://www.w3.org/1999/xlink" width="200" zoomAndPan="magnify" viewBox="0 0 150 149.999998" height="200" preserveAspectRatio="xMidYMid meet" version="1.0"><defs><filter x="0%" y="0%" width="100%" height="100%" id="b43618e1b4"><feColorMatrix values="0 0 0 0 1 0 0 0 0 1 0 0 0 0 1 0 0 0 1 0" color-interpolation-filters="sRGB"/></filter><mask id="141e282a72"><g filter="url(#b43618e1b4)"><rect x="-15" width="180" fill="#000000" y="-15" height="179.999997" fill-opacity="0.2"/></g></mask><clipPath id="a3cf3492da"><path d="M 0 0 L 150 0 L 150 150 L 0 150 Z M 0 0 " clip-rule="nonzero"/></clipPath><clipPath id="1ce7c533ba"><path d="M 75 0 C 33.578125 0 0 33.578125 0 75 C 0 116.421875 33.578125 150 75 150 C 116.421875 150 150 116.421875 150 75 C 150 33.578125 116.421875 0 75 0 Z M 75 0 " clip-rule="nonzero"/></clipPath><clipPath id="eddbadd63d"><rect x="0" width="150" y="0" height="150"/></clipPath><clipPath id="5a17c9e074"><path d="M 22.289062 22.289062 L 39 22.289062 L 39 39 L 22.289062 39 Z M 22.289062 22.289062 " clip-rule="nonzero"/></clipPath><clipPath id="07b6a9b4dc"><path d="M 112 22.289062 L 128.039062 22.289062 L 128.039062 39 L 112 39 Z M 112 22.289062 " clip-rule="nonzero"/></clipPath><clipPath id="835f85969a"><path d="M 22.289062 112 L 39 112 L 39 128.039062 L 22.289062 128.039062 Z M 22.289062 112 " clip-rule="nonzero"/></clipPath><clipPath id="016d3385de"><path d="M 112 112 L 128.039062 112 L 128.039062 128.039062 L 112 128.039062 Z M 112 112 " clip-rule="nonzero"/></clipPath><clipPath id="e63b6c0d37"><path d="M 24 24 L 128.039062 24 L 128.039062 128.039062 L 24 128.039062 Z M 24 24 " clip-rule="nonzero"/></clipPath></defs><g mask="url(#141e282a72)"><g transform="matrix(1, 0, 0, 1, 0, -0.000000000000007527)"><g clip-path="url(#eddbadd63d)"><g clip-path="url(#a3cf3492da)"><g clip-path="url(#1ce7c533ba)"><rect x="-33" width="216" fill="#b02925" height="215.999996" y="-32.999999" fill-opacity="1"/></g></g></g></g></g><g clip-path="url(#5a17c9e074)"><path fill="#b02925" d="M 24.050781 38.152344 C 24.285156 38.152344 24.511719 38.105469 24.726562 38.019531 C 24.941406 37.929688 25.132812 37.800781 25.296875 37.636719 C 25.464844 37.46875 25.589844 37.28125 25.679688 37.0625 C 25.769531 36.847656 25.816406 36.625 25.816406 36.390625 L 25.816406 25.816406 L 36.390625 25.816406 C 36.625 25.816406 36.847656 25.769531 37.0625 25.679688 C 37.28125 25.589844 37.46875 25.464844 37.636719 25.296875 C 37.800781 25.132812 37.929688 24.941406 38.019531 24.726562 C 38.105469 24.511719 38.152344 24.285156 38.152344 24.050781 C 38.152344 23.816406 38.105469 23.59375 38.019531 23.378906 C 37.929688 23.160156 37.800781 22.972656 37.636719 22.804688 C 37.46875 22.640625 37.28125 22.511719 37.0625 22.421875 C 36.847656 22.335938 36.625 22.289062 36.390625 22.289062 L 24.050781 22.289062 C 23.816406 22.289062 23.59375 22.335938 23.378906 22.421875 C 23.160156 22.511719 22.972656 22.640625 22.804688 22.804688 C 22.640625 22.972656 22.511719 23.160156 22.421875 23.378906 C 22.335938 23.59375 22.289062 23.816406 22.289062 24.050781 L 22.289062 36.390625 C 22.289062 36.625 22.335938 36.847656 22.421875 37.0625 C 22.511719 37.28125 22.640625 37.46875 22.804688 37.636719 C 22.972656 37.800781 23.160156 37.929688 23.378906 38.019531 C 23.59375 38.105469 23.816406 38.152344 24.050781 38.152344 Z M 24.050781 38.152344 " fill-opacity="1" fill-rule="nonzero"/></g><g clip-path="url(#07b6a9b4dc)"><path fill="#b02925" d="M 126.277344 22.289062 L 113.941406 22.289062 C 113.707031 22.289062 113.480469 22.335938 113.265625 22.421875 C 113.050781 22.511719 112.859375 22.640625 112.691406 22.804688 C 112.527344 22.972656 112.402344 23.160156 112.3125 23.378906 C 112.222656 23.59375 112.175781 23.816406 112.175781 24.050781 C 112.175781 24.285156 112.222656 24.511719 112.3125 24.726562 C 112.402344 24.941406 112.527344 25.132812 112.691406 25.296875 C 112.859375 25.464844 113.050781 25.589844 113.265625 25.679688 C 113.480469 25.769531 113.707031 25.816406 113.941406 25.816406 L 124.515625 25.816406 L 124.515625 36.390625 C 124.515625 36.625 124.558594 36.847656 124.648438 37.0625 C 124.738281 37.28125 124.867188 37.46875 125.03125 37.636719 C 125.195312 37.800781 125.386719 37.929688 125.601562 38.019531 C 125.820312 38.105469 126.042969 38.152344 126.277344 38.152344 C 126.511719 38.152344 126.734375 38.105469 126.953125 38.019531 C 127.167969 37.929688 127.359375 37.800781 127.523438 37.636719 C 127.6875 37.46875 127.816406 37.28125 127.90625 37.0625 C 127.996094 36.847656 128.039062 36.625 128.039062 36.390625 L 128.039062 24.050781 C 128.039062 23.816406 127.996094 23.59375 127.90625 23.378906 C 127.816406 23.160156 127.6875 22.972656 127.523438 22.804688 C 127.359375 22.640625 127.167969 22.511719 126.953125 22.421875 C 126.734375 22.335938 126.511719 22.289062 126.277344 22.289062 Z M 126.277344 22.289062 " fill-opacity="1" fill-rule="nonzero"/></g><g clip-path="url(#835f85969a)"><path fill="#b02925" d="M 24.050781 128.039062 L 36.390625 128.039062 C 36.625 128.039062 36.847656 127.996094 37.0625 127.90625 C 37.28125 127.816406 37.46875 127.6875 37.636719 127.523438 C 37.800781 127.359375 37.929688 127.167969 38.019531 126.953125 C 38.105469 126.734375 38.152344 126.511719 38.152344 126.277344 C 38.152344 126.042969 38.105469 125.820312 38.019531 125.601562 C 37.929688 125.386719 37.800781 125.195312 37.636719 125.03125 C 37.46875 124.867188 37.28125 124.738281 37.0625 124.648438 C 36.847656 124.558594 36.625 124.515625 36.390625 124.515625 L 25.816406 124.515625 L 25.816406 113.941406 C 25.816406 113.707031 25.769531 113.480469 25.679688 113.265625 C 25.589844 113.050781 25.464844 112.859375 25.296875 112.691406 C 25.132812 112.527344 24.941406 112.402344 24.726562 112.3125 C 24.511719 112.222656 24.285156 112.175781 24.050781 112.175781 C 23.816406 112.175781 23.59375 112.222656 23.378906 112.3125 C 23.160156 112.402344 22.972656 112.527344 22.804688 112.691406 C 22.640625 112.859375 22.511719 113.050781 22.421875 113.265625 C 22.335938 113.480469 22.289062 113.707031 22.289062 113.941406 L 22.289062 126.277344 C 22.289062 126.511719 22.335938 126.734375 22.421875 126.953125 C 22.511719 127.167969 22.640625 127.359375 22.804688 127.523438 C 22.972656 127.6875 23.160156 127.816406 23.378906 127.90625 C 23.59375 127.996094 23.816406 128.039062 24.050781 128.039062 Z M 24.050781 128.039062 " fill-opacity="1" fill-rule="nonzero"/></g><g clip-path="url(#016d3385de)"><path fill="#b02925" d="M 126.277344 112.175781 C 126.042969 112.175781 125.820312 112.222656 125.601562 112.3125 C 125.386719 112.402344 125.195312 112.527344 125.03125 112.691406 C 124.867188 112.859375 124.738281 113.050781 124.648438 113.265625 C 124.558594 113.480469 124.515625 113.707031 124.515625 113.941406 L 124.515625 124.515625 L 113.941406 124.515625 C 113.707031 124.515625 113.480469 124.558594 113.265625 124.648438 C 113.050781 124.738281 112.859375 124.867188 112.691406 125.03125 C 112.527344 125.195312 112.402344 125.386719 112.3125 125.601562 C 112.222656 125.820312 112.175781 126.042969 112.175781 126.277344 C 112.175781 126.511719 112.222656 126.734375 112.3125 126.953125 C 112.402344 127.167969 112.527344 127.359375 112.691406 127.523438 C 112.859375 127.6875 113.050781 127.816406 113.265625 127.90625 C 113.480469 127.996094 113.707031 128.039062 113.941406 128.039062 L 126.277344 128.039062 C 126.511719 128.039062 126.734375 127.996094 126.953125 127.90625 C 127.167969 127.816406 127.359375 127.6875 127.523438 127.523438 C 127.6875 127.359375 127.816406 127.167969 127.90625 126.953125 C 127.996094 126.734375 128.039062 126.511719 128.039062 126.277344 L 128.039062 113.941406 C 128.039062 113.707031 127.996094 113.480469 127.90625 113.265625 C 127.816406 113.050781 127.6875 112.859375 127.523438 112.691406 C 127.359375 112.527344 127.167969 112.402344 126.953125 112.3125 C 126.734375 112.222656 126.511719 112.175781 126.277344 112.175781 Z M 126.277344 112.175781 " fill-opacity="1" fill-rule="nonzero"/></g><g clip-path="url(#e63b6c0d37)"><path fill="#b02925" d="M 128.039062 52.253906 C 128.039062 52.019531 127.996094 51.792969 127.90625 51.578125 C 127.816406 51.363281 127.6875 51.171875 127.523438 51.003906 C 127.359375 50.839844 127.167969 50.714844 126.953125 50.625 C 126.734375 50.535156 126.511719 50.488281 126.277344 50.488281 L 117.464844 50.488281 C 117.230469 50.488281 117.007812 50.535156 116.789062 50.625 C 116.574219 50.714844 116.382812 50.839844 116.21875 51.003906 C 116.054688 51.171875 115.925781 51.363281 115.835938 51.578125 C 115.746094 51.792969 115.703125 52.019531 115.703125 52.253906 L 115.703125 61.066406 C 115.703125 61.296875 115.746094 61.523438 115.835938 61.738281 C 115.925781 61.953125 116.054688 62.144531 116.21875 62.3125 C 116.382812 62.476562 116.574219 62.601562 116.789062 62.691406 C 117.007812 62.78125 117.230469 62.828125 117.464844 62.828125 C 117.699219 62.828125 117.921875 62.78125 118.140625 62.691406 C 118.355469 62.601562 118.546875 62.476562 118.710938 62.3125 C 118.875 62.144531 119.003906 61.953125 119.09375 61.738281 C 119.183594 61.523438 119.226562 61.296875 119.226562 61.066406 L 119.226562 55.890625 L 120.324219 56.757812 C 123.105469 59.035156 124.515625 61.390625 124.515625 63.765625 C 124.515625 68.730469 117.992188 73.894531 106.890625 77.367188 L 106.890625 53.410156 L 76.925781 69.179688 L 76.925781 81.53125 C 76.632812 81.53125 76.34375 81.539062 76.046875 81.539062 C 75.15625 81.539062 74.273438 81.53125 73.402344 81.511719 L 73.402344 69.179688 L 60.136719 62.195312 C 60.277344 60.925781 60.433594 59.675781 60.609375 58.464844 L 75.164062 66.121094 L 104.710938 50.574219 L 75.164062 36.578125 L 64.859375 41.457031 C 68.253906 32.648438 72.785156 27.578125 77.160156 27.578125 C 80.367188 27.578125 83.039062 30.230469 84.710938 32.457031 C 84.851562 32.648438 85.019531 32.808594 85.222656 32.929688 C 85.425781 33.054688 85.644531 33.136719 85.878906 33.171875 C 86.113281 33.207031 86.34375 33.195312 86.574219 33.140625 C 86.804688 33.082031 87.015625 32.980469 87.203125 32.835938 C 87.394531 32.695312 87.546875 32.519531 87.667969 32.316406 C 87.789062 32.109375 87.863281 31.890625 87.894531 31.65625 C 87.921875 31.421875 87.90625 31.1875 87.84375 30.960938 C 87.78125 30.730469 87.675781 30.523438 87.527344 30.335938 C 84.433594 26.226562 80.851562 24.050781 77.160156 24.050781 C 70.296875 24.050781 64.292969 31.605469 60.421875 43.558594 L 45.617188 50.574219 L 57.335938 56.738281 C 57.140625 57.953125 56.960938 59.183594 56.804688 60.441406 L 43.441406 53.410156 L 43.441406 76.789062 C 33.414062 73.335938 27.578125 68.460938 27.578125 63.765625 C 27.578125 60.558594 30.230469 57.890625 32.453125 56.21875 C 32.648438 56.078125 32.804688 55.910156 32.929688 55.707031 C 33.054688 55.503906 33.132812 55.285156 33.171875 55.050781 C 33.207031 54.816406 33.195312 54.585938 33.136719 54.355469 C 33.078125 54.125 32.980469 53.914062 32.835938 53.726562 C 32.695312 53.535156 32.519531 53.382812 32.316406 53.261719 C 32.109375 53.140625 31.890625 53.066406 31.65625 53.035156 C 31.417969 53.007812 31.1875 53.023438 30.957031 53.085938 C 30.730469 53.148438 30.523438 53.253906 30.335938 53.402344 C 26.226562 56.492188 24.050781 60.078125 24.050781 63.765625 C 24.050781 70.609375 31.554688 76.597656 43.441406 80.464844 L 43.441406 93.488281 L 58.488281 101.40625 C 62.078125 117.414062 69.019531 128.039062 77.160156 128.039062 C 80.644531 128.039062 83.921875 126.195312 86.917969 122.535156 L 87.503906 121.792969 L 87.503906 126.277344 C 87.503906 126.511719 87.546875 126.734375 87.636719 126.953125 C 87.726562 127.167969 87.851562 127.359375 88.019531 127.523438 C 88.183594 127.6875 88.375 127.816406 88.589844 127.90625 C 88.804688 127.996094 89.03125 128.039062 89.265625 128.039062 C 89.5 128.039062 89.722656 127.996094 89.9375 127.90625 C 90.15625 127.816406 90.34375 127.6875 90.511719 127.523438 C 90.675781 127.359375 90.804688 127.167969 90.894531 126.953125 C 90.980469 126.734375 91.027344 126.511719 91.027344 126.277344 L 91.027344 117.464844 C 91.027344 117.230469 90.980469 117.007812 90.894531 116.789062 C 90.804688 116.574219 90.675781 116.382812 90.511719 116.21875 C 90.34375 116.054688 90.15625 115.925781 89.9375 115.835938 C 89.722656 115.746094 89.5 115.703125 89.265625 115.703125 L 80.453125 115.703125 C 80.21875 115.703125 79.992188 115.746094 79.777344 115.835938 C 79.5625 115.925781 79.371094 116.054688 79.207031 116.21875 C 79.039062 116.382812 78.914062 116.574219 78.824219 116.789062 C 78.734375 117.007812 78.691406 117.230469 78.691406 117.464844 C 78.691406 117.699219 78.734375 117.921875 78.824219 118.140625 C 78.914062 118.355469 79.039062 118.546875 79.207031 118.710938 C 79.371094 118.875 79.5625 119.003906 79.777344 119.09375 C 79.992188 119.183594 80.21875 119.226562 80.453125 119.226562 L 85.039062 119.226562 L 84.171875 120.324219 C 81.894531 123.105469 79.539062 124.515625 77.160156 124.515625 C 71.722656 124.515625 66.042969 116.6875 62.609375 103.578125 L 73.402344 109.257812 L 73.402344 85.039062 C 74.277344 85.054688 75.160156 85.0625 76.046875 85.0625 C 76.339844 85.0625 76.632812 85.058594 76.925781 85.054688 L 76.925781 109.257812 L 106.890625 93.488281 L 106.890625 81.015625 C 119.792969 77.179688 128.039062 70.941406 128.039062 63.765625 C 128.039062 60.332031 126.144531 56.96875 122.539062 54.015625 L 126.277344 54.015625 C 126.511719 54.015625 126.734375 53.96875 126.953125 53.878906 C 127.167969 53.789062 127.359375 53.664062 127.523438 53.5 C 127.6875 53.332031 127.816406 53.140625 127.90625 52.925781 C 127.996094 52.710938 128.039062 52.484375 128.039062 52.253906 Z M 128.039062 52.253906 " fill-opacity="1" fill-rule="nonzero"/></g><path fill="#b02925" d="M 31.101562 29.339844 C 30.867188 29.339844 30.644531 29.382812 30.425781 29.472656 C 30.210938 29.5625 30.019531 29.691406 29.855469 29.855469 C 29.691406 30.019531 29.5625 30.210938 29.472656 30.425781 C 29.382812 30.644531 29.339844 30.867188 29.339844 31.101562 C 29.339844 31.335938 29.382812 31.5625 29.472656 31.777344 C 29.5625 31.992188 29.691406 32.183594 29.855469 32.347656 C 30.019531 32.511719 30.210938 32.640625 30.425781 32.730469 C 30.644531 32.820312 30.867188 32.863281 31.101562 32.863281 L 34.628906 32.863281 C 34.859375 32.863281 35.085938 32.820312 35.300781 32.730469 C 35.515625 32.640625 35.707031 32.511719 35.875 32.347656 C 36.039062 32.183594 36.164062 31.992188 36.253906 31.777344 C 36.34375 31.5625 36.390625 31.335938 36.390625 31.101562 C 36.390625 30.867188 36.34375 30.644531 36.253906 30.425781 C 36.164062 30.210938 36.039062 30.019531 35.875 29.855469 C 35.707031 29.691406 35.515625 29.5625 35.300781 29.472656 C 35.085938 29.382812 34.859375 29.339844 34.628906 29.339844 Z M 31.101562 29.339844 " fill-opacity="1" fill-rule="nonzero"/><path fill="#b02925" d="M 41.675781 32.863281 L 45.203125 32.863281 C 45.4375 32.863281 45.660156 32.820312 45.875 32.730469 C 46.09375 32.640625 46.28125 32.511719 46.449219 32.347656 C 46.613281 32.183594 46.742188 31.992188 46.832031 31.777344 C 46.917969 31.5625 46.964844 31.335938 46.964844 31.101562 C 46.964844 30.867188 46.917969 30.644531 46.832031 30.425781 C 46.742188 30.210938 46.613281 30.019531 46.449219 29.855469 C 46.28125 29.691406 46.09375 29.5625 45.875 29.472656 C 45.660156 29.382812 45.4375 29.339844 45.203125 29.339844 L 41.675781 29.339844 C 41.441406 29.339844 41.21875 29.382812 41.003906 29.472656 C 40.785156 29.5625 40.597656 29.691406 40.429688 29.855469 C 40.265625 30.019531 40.136719 30.210938 40.046875 30.425781 C 39.960938 30.644531 39.914062 30.867188 39.914062 31.101562 C 39.914062 31.335938 39.960938 31.5625 40.046875 31.777344 C 40.136719 31.992188 40.265625 32.183594 40.429688 32.347656 C 40.597656 32.511719 40.785156 32.640625 41.003906 32.730469 C 41.21875 32.820312 41.441406 32.863281 41.675781 32.863281 Z M 41.675781 32.863281 " fill-opacity="1" fill-rule="nonzero"/><path fill="#b02925" d="M 108.652344 117.464844 L 105.128906 117.464844 C 104.894531 117.464844 104.667969 117.507812 104.453125 117.597656 C 104.238281 117.6875 104.046875 117.816406 103.878906 117.980469 C 103.714844 118.144531 103.589844 118.335938 103.5 118.550781 C 103.410156 118.769531 103.363281 118.992188 103.363281 119.226562 C 103.363281 119.460938 103.410156 119.6875 103.5 119.902344 C 103.589844 120.117188 103.714844 120.308594 103.878906 120.472656 C 104.046875 120.636719 104.238281 120.765625 104.453125 120.855469 C 104.667969 120.945312 104.894531 120.988281 105.128906 120.988281 L 108.652344 120.988281 C 108.886719 120.988281 109.109375 120.945312 109.328125 120.855469 C 109.542969 120.765625 109.734375 120.636719 109.898438 120.472656 C 110.0625 120.308594 110.191406 120.117188 110.28125 119.902344 C 110.371094 119.6875 110.414062 119.460938 110.414062 119.226562 C 110.414062 118.992188 110.371094 118.769531 110.28125 118.550781 C 110.191406 118.335938 110.0625 118.144531 109.898438 117.980469 C 109.734375 117.816406 109.542969 117.6875 109.328125 117.597656 C 109.109375 117.507812 108.886719 117.464844 108.652344 117.464844 Z M 108.652344 117.464844 " fill-opacity="1" fill-rule="nonzero"/><path fill="#b02925" d="M 119.226562 120.988281 C 119.460938 120.988281 119.6875 120.945312 119.902344 120.855469 C 120.117188 120.765625 120.308594 120.636719 120.472656 120.472656 C 120.636719 120.308594 120.765625 120.117188 120.855469 119.902344 C 120.945312 119.6875 120.988281 119.460938 120.988281 119.226562 C 120.988281 118.992188 120.945312 118.769531 120.855469 118.550781 C 120.765625 118.335938 120.636719 118.144531 120.472656 117.980469 C 120.308594 117.816406 120.117188 117.6875 119.902344 117.597656 C 119.6875 117.507812 119.460938 117.464844 119.226562 117.464844 L 115.703125 117.464844 C 115.46875 117.464844 115.242188 117.507812 115.027344 117.597656 C 114.8125 117.6875 114.621094 117.816406 114.457031 117.980469 C 114.289062 118.144531 114.164062 118.335938 114.074219 118.550781 C 113.984375 118.769531 113.941406 118.992188 113.941406 119.226562 C 113.941406 119.460938 113.984375 119.6875 114.074219 119.902344 C 114.164062 120.117188 114.289062 120.308594 114.457031 120.472656 C 114.621094 120.636719 114.8125 120.765625 115.027344 120.855469 C 115.242188 120.945312 115.46875 120.988281 115.703125 120.988281 Z M 119.226562 120.988281 " fill-opacity="1" fill-rule="nonzero"/></svg>