<svg xmlns="http://www.w3.org/2000/svg" xmlns:xlink="http://www.w3.org/1999/xlink" width="32" zoomAndPan="magnify" viewBox="0 0 75 74.999997" height="32" preserveAspectRatio="xMidYMid meet" version="1.0"><defs><clipPath id="bfbf94d8d7"><path d="M 0 3 L 74 3 L 74 71.859375 L 0 71.859375 Z M 0 3 " clip-rule="nonzero"/></clipPath></defs><g clip-path="url(#bfbf94d8d7)"><path fill="#ff3131" d="M 30.582031 68.191406 C 25.816406 69.355469 21.824219 69.355469 19.015625 68.179688 C 18.9375 68.148438 18.84375 68.109375 18.867188 67.933594 C 18.878906 67.832031 18.9375 67.648438 19.234375 67.605469 C 22.882812 67.078125 25.558594 63.539062 25.199219 59.707031 C 24.738281 54.820312 26.601562 51.859375 30.730469 50.90625 C 31.269531 50.78125 31.804688 50.71875 32.335938 50.71875 C 32.765625 50.71875 33.1875 50.78125 33.597656 50.863281 C 33.664062 50.886719 33.730469 50.878906 33.796875 50.890625 C 34.253906 50.996094 34.6875 51.152344 35.097656 51.355469 C 38.394531 53.011719 38.609375 56.355469 38.621094 56.574219 C 38.914062 59.4375 38.328125 61.945312 36.875 64.035156 C 35.46875 66.0625 33.230469 67.539062 30.582031 68.191406 Z M 67.46875 22.785156 C 67.839844 22.550781 68.128906 22.753906 68.242188 22.859375 C 68.390625 22.996094 68.539062 23.234375 68.363281 23.566406 C 65.375 29.144531 58.882812 39.222656 46.875 49.835938 C 45.652344 47.082031 43.101562 45.078125 41.371094 43.980469 C 47.222656 38.234375 56.660156 29.710938 67.46875 22.785156 Z M 39.308594 46.042969 C 40.828125 46.941406 43.867188 49.03125 44.574219 51.820312 C 43.472656 52.738281 42.324219 53.667969 41.140625 54.59375 C 40.65625 52.917969 39.464844 50.453125 36.539062 48.914062 C 37.230469 48.179688 38.164062 47.199219 39.308594 46.042969 Z M 66.816406 43.324219 C 66.601562 43.09375 66.402344 42.867188 66.207031 42.644531 C 65.691406 42.050781 64.789062 41.992188 64.199219 42.507812 C 63.605469 43.015625 63.546875 43.914062 64.054688 44.503906 C 64.273438 44.746094 64.488281 44.992188 64.824219 45.339844 C 64.890625 45.394531 71.652344 51.523438 69.984375 58.855469 C 69.214844 62.253906 66.601562 65.09375 63.007812 66.453125 C 60.316406 67.476562 55.6875 68.605469 48.894531 68.207031 C 45.578125 68.015625 42.207031 67.300781 38.839844 66.140625 C 38.964844 65.972656 39.097656 65.816406 39.214844 65.644531 C 40.792969 63.378906 41.566406 60.75 41.539062 57.863281 C 58.59375 44.9375 67.230469 31.691406 70.871094 24.902344 C 71.621094 23.5 71.335938 21.847656 70.167969 20.773438 C 68.984375 19.6875 67.285156 19.539062 65.929688 20.40625 C 63.941406 21.679688 62 23.007812 60.117188 24.359375 C 58.808594 20.320312 55.265625 12.066406 48.691406 8.324219 C 42.542969 4.828125 37.109375 3.980469 33.0625 3.636719 C 24.746094 2.90625 16.433594 5.675781 10.242188 11.171875 C 4.273438 16.472656 0.859375 23.699219 0.632812 31.53125 C 0.136719 48.621094 13.421875 57.277344 17.5 59.53125 C 17.714844 59.648438 17.953125 59.707031 18.183594 59.707031 C 18.6875 59.707031 19.171875 59.441406 19.433594 58.972656 C 19.8125 58.289062 19.5625 57.425781 18.878906 57.050781 C 15.148438 54.996094 3.027344 47.101562 3.476562 31.613281 C 3.683594 24.570312 6.757812 18.058594 12.136719 13.285156 C 17.742188 8.304688 25.273438 5.8125 32.820312 6.460938 C 36.578125 6.78125 41.617188 7.5625 47.28125 10.78125 C 53.546875 14.351562 56.949219 23.449219 57.714844 26.125 C 49.464844 32.304688 42.527344 38.804688 38.121094 43.210938 C 38.105469 43.226562 38.089844 43.242188 38.070312 43.257812 C 35.863281 45.46875 34.304688 47.140625 33.535156 47.980469 C 32.410156 47.835938 31.242188 47.878906 30.085938 48.144531 C 27.492188 48.75 21.535156 51.101562 22.367188 59.96875 C 22.589844 62.320312 21 64.488281 18.792969 64.804688 C 17.335938 65.015625 16.230469 66.121094 16.042969 67.574219 C 15.863281 68.957031 16.617188 70.25 17.914062 70.792969 C 19.683594 71.535156 21.746094 71.90625 24.066406 71.90625 C 26.234375 71.90625 28.640625 71.585938 31.257812 70.9375 C 33.277344 70.449219 35.097656 69.558594 36.632812 68.359375 C 40.667969 69.886719 44.730469 70.800781 48.722656 71.035156 C 49.746094 71.097656 50.746094 71.132812 51.730469 71.132812 C 56.355469 71.132812 60.476562 70.449219 64.023438 69.105469 C 68.507812 67.40625 71.773438 63.804688 72.757812 59.480469 C 74.792969 50.542969 67.046875 43.519531 66.816406 43.324219 " fill-opacity="1" fill-rule="nonzero"/></g><path fill="#ff3131" d="M 18.925781 34.945312 C 21.761719 34.945312 24.074219 37.242188 24.074219 40.066406 C 24.074219 42.894531 21.761719 45.191406 18.925781 45.191406 C 16.09375 45.191406 13.78125 42.894531 13.78125 40.066406 C 13.78125 37.242188 16.09375 34.945312 18.925781 34.945312 Z M 10.9375 40.066406 C 10.9375 44.453125 14.519531 48.023438 18.925781 48.023438 C 23.332031 48.023438 26.917969 44.453125 26.917969 40.066406 C 26.917969 35.683594 23.332031 32.113281 18.925781 32.113281 C 14.519531 32.113281 10.9375 35.683594 10.9375 40.066406 " fill-opacity="1" fill-rule="nonzero"/><path fill="#ff3131" d="M 18.097656 21.257812 C 18.097656 19.058594 19.898438 17.257812 22.117188 17.257812 C 24.328125 17.257812 26.132812 19.058594 26.132812 21.257812 C 26.132812 23.46875 24.328125 25.261719 22.117188 25.261719 C 19.898438 25.261719 18.097656 23.46875 18.097656 21.257812 Z M 28.980469 21.257812 C 28.980469 17.492188 25.902344 14.425781 22.117188 14.425781 C 18.332031 14.425781 15.253906 17.492188 15.253906 21.257812 C 15.253906 25.027344 18.332031 28.09375 22.117188 28.09375 C 25.902344 28.09375 28.980469 25.027344 28.980469 21.257812 " fill-opacity="1" fill-rule="nonzero"/><path fill="#ff3131" d="M 35.121094 15.726562 C 35.121094 14.378906 36.222656 13.289062 37.570312 13.289062 C 38.921875 13.289062 40.015625 14.378906 40.015625 15.726562 C 40.015625 17.0625 38.921875 18.160156 37.570312 18.160156 C 36.222656 18.160156 35.121094 17.0625 35.121094 15.726562 Z M 42.863281 15.726562 C 42.863281 12.820312 40.488281 10.457031 37.570312 10.457031 C 34.652344 10.457031 32.273438 12.820312 32.273438 15.726562 C 32.273438 18.628906 34.652344 20.992188 37.570312 20.992188 C 40.488281 20.992188 42.863281 18.628906 42.863281 15.726562 " fill-opacity="1" fill-rule="nonzero"/><path fill="#ff3131" d="M 58.871094 59.894531 C 58.871094 61.382812 57.65625 62.589844 56.164062 62.589844 C 54.675781 62.589844 53.457031 61.382812 53.457031 59.894531 C 53.457031 58.414062 54.675781 57.207031 56.164062 57.207031 C 57.65625 57.207031 58.871094 58.414062 58.871094 59.894531 Z M 50.613281 59.894531 C 50.613281 62.945312 53.101562 65.425781 56.164062 65.425781 C 59.226562 65.425781 61.714844 62.945312 61.714844 59.894531 C 61.714844 56.851562 59.226562 54.371094 56.164062 54.371094 C 53.101562 54.371094 50.613281 56.851562 50.613281 59.894531 " fill-opacity="1" fill-rule="nonzero"/></svg>