<svg xmlns="http://www.w3.org/2000/svg" xmlns:xlink="http://www.w3.org/1999/xlink" width="100" zoomAndPan="magnify" viewBox="0 0 75 74.999997" height="100" preserveAspectRatio="xMidYMid meet" version="1.0"><defs><clipPath id="a23c37c49e"><path d="M 66.316406 13.125 L 74.902344 13.125 L 74.902344 18.402344 L 66.316406 18.402344 Z M 66.316406 13.125 " clip-rule="nonzero"/></clipPath><clipPath id="4c30c8689c"><path d="M 7.640625 20.0625 L 66.015625 20.0625 L 66.015625 61.867188 L 7.640625 61.867188 Z M 7.640625 20.0625 " clip-rule="nonzero"/></clipPath><clipPath id="4dbb8eaefe"><path d="M 6 13.125 L 67 13.125 L 67 57 L 6 57 Z M 6 13.125 " clip-rule="nonzero"/></clipPath><clipPath id="87c14e35d5"><path d="M 40 41 L 67 41 L 67 61.875 L 40 61.875 Z M 40 41 " clip-rule="nonzero"/></clipPath><clipPath id="e5ea6909b6"><path d="M 40 22 L 58 22 L 58 61.875 L 40 61.875 Z M 40 22 " clip-rule="nonzero"/></clipPath></defs><path fill="#06a1c4" d="M 67.695312 20.808594 C 67.710938 20.820312 67.726562 20.832031 67.746094 20.851562 C 67.726562 20.839844 67.710938 20.824219 67.695312 20.808594 Z M 69.878906 22.097656 C 69.664062 21.292969 69.359375 20.582031 68.933594 20.222656 C 68.214844 19.617188 66.847656 20.191406 67.75 20.855469 C 67.960938 21.105469 68.070312 21.933594 68.125 22.65625 C 68.167969 23.195312 68.183594 23.671875 68.1875 23.804688 C 68.332031 27.117188 66.730469 30.125 65.34375 33.042969 C 64.570312 35.703125 67.242188 35.054688 68.246094 33.808594 C 68.75 33.1875 69.054688 31.625 69.285156 30.886719 C 69.835938 29.136719 70.347656 27.285156 70.316406 25.429688 C 70.304688 24.679688 70.191406 23.285156 69.878906 22.097656 " fill-opacity="1" fill-rule="nonzero"/><path fill="#038abd" d="M 69.878906 22.097656 C 69.484375 22.453125 68.960938 22.671875 68.378906 22.671875 C 68.292969 22.671875 68.210938 22.667969 68.125 22.65625 C 68.070312 21.933594 67.960938 21.105469 67.75 20.859375 C 66.847656 20.191406 68.214844 19.617188 68.933594 20.222656 C 69.359375 20.582031 69.664062 21.292969 69.878906 22.097656 " fill-opacity="1" fill-rule="nonzero"/><path fill="#06a1c4" d="M 70.503906 20.015625 C 70.503906 21.1875 69.523438 22.140625 68.3125 22.140625 C 67.101562 22.140625 66.121094 21.1875 66.121094 20.015625 C 66.121094 18.839844 67.101562 17.890625 68.3125 17.890625 C 69.523438 17.890625 70.503906 18.839844 70.503906 20.015625 " fill-opacity="1" fill-rule="nonzero"/><g clip-path="url(#a23c37c49e)"><path fill="#ff931e" d="M 74.503906 18.257812 C 74.335938 18.257812 74.179688 18.148438 74.125 17.976562 C 73.175781 14.9375 69.925781 13.234375 66.886719 14.183594 C 66.675781 14.25 66.453125 14.132812 66.386719 13.921875 C 66.320312 13.714844 66.4375 13.488281 66.648438 13.425781 C 70.109375 12.34375 73.804688 14.277344 74.886719 17.738281 C 74.953125 17.949219 74.835938 18.171875 74.625 18.238281 C 74.585938 18.25 74.546875 18.257812 74.503906 18.257812 " fill-opacity="1" fill-rule="nonzero"/></g><path fill="#ff931e" d="M 72.605469 18.851562 C 72.433594 18.851562 72.277344 18.742188 72.222656 18.570312 C 71.601562 16.578125 69.476562 15.464844 67.480469 16.085938 C 67.273438 16.152344 67.046875 16.035156 66.980469 15.824219 C 66.917969 15.617188 67.03125 15.390625 67.242188 15.328125 C 69.65625 14.570312 72.230469 15.921875 72.984375 18.332031 C 73.050781 18.542969 72.933594 18.765625 72.722656 18.832031 C 72.683594 18.84375 72.644531 18.851562 72.605469 18.851562 " fill-opacity="1" fill-rule="nonzero"/><g clip-path="url(#4c30c8689c)"><path fill="#ffffff" d="M 66.007812 41.03125 C 66.007812 46.882812 62.632812 52.171875 57.199219 55.957031 C 51.945312 59.617188 44.769531 61.867188 36.855469 61.867188 C 28.691406 61.867188 21.308594 59.46875 16.019531 55.605469 C 10.875 51.847656 7.703125 46.703125 7.703125 41.03125 C 7.703125 35.359375 10.875 30.214844 16.019531 26.457031 C 17.574219 25.320312 19.316406 24.308594 21.203125 23.453125 C 21.363281 23.378906 21.527344 23.304688 21.691406 23.234375 C 26.109375 21.304688 31.300781 20.195312 36.855469 20.195312 C 41.660156 20.195312 46.195312 21.027344 50.191406 22.5 C 50.359375 22.5625 50.527344 22.625 50.695312 22.691406 C 53.082031 23.609375 55.269531 24.765625 57.199219 26.109375 C 62.632812 29.894531 66.007812 35.179688 66.007812 41.03125 " fill-opacity="1" fill-rule="nonzero"/></g><g clip-path="url(#4dbb8eaefe)"><path fill="#087799" d="M 36.675781 15.144531 C 31.425781 15.144531 26.300781 16.167969 21.855469 18.109375 C 21.710938 18.171875 21.558594 18.238281 21.375 18.320312 C 19.550781 19.152344 17.855469 20.136719 16.339844 21.242188 C 11.203125 24.996094 8.371094 29.929688 8.371094 35.128906 C 8.371094 40.332031 11.203125 45.265625 16.339844 49.019531 C 21.726562 52.949219 28.949219 55.117188 36.675781 55.117188 C 44.148438 55.117188 51.199219 53.070312 56.535156 49.359375 C 61.980469 45.5625 64.980469 40.511719 64.980469 35.128906 C 64.980469 29.75 61.980469 24.695312 56.535156 20.902344 C 54.648438 19.589844 52.523438 18.472656 50.207031 17.578125 C 50.046875 17.515625 49.882812 17.457031 49.71875 17.394531 C 45.664062 15.902344 41.277344 15.144531 36.675781 15.144531 M 36.675781 56.816406 C 28.589844 56.816406 21.015625 54.535156 15.339844 50.390625 C 9.75 46.308594 6.671875 40.890625 6.671875 35.128906 C 6.671875 29.371094 9.75 23.953125 15.339844 19.871094 C 16.945312 18.695312 18.742188 17.65625 20.671875 16.777344 C 20.867188 16.6875 21.027344 16.617188 21.179688 16.550781 C 25.835938 14.519531 31.195312 13.445312 36.675781 13.445312 C 41.476562 13.445312 46.0625 14.238281 50.304688 15.800781 C 50.476562 15.863281 50.648438 15.929688 50.820312 15.996094 C 53.261719 16.9375 55.507812 18.117188 57.507812 19.507812 C 60.363281 21.5 62.609375 23.835938 64.191406 26.453125 C 65.839844 29.195312 66.679688 32.113281 66.679688 35.128906 C 66.679688 38.148438 65.839844 41.066406 64.191406 43.804688 C 62.609375 46.425781 60.363281 48.761719 57.507812 50.75 C 51.890625 54.664062 44.492188 56.816406 36.675781 56.816406 " fill-opacity="1" fill-rule="nonzero"/></g><path fill="#e1f2fa" d="M 66.007812 41.03125 C 66.007812 46.882812 62.632812 52.171875 57.199219 55.957031 C 51.765625 52.171875 48.390625 46.882812 48.390625 41.03125 C 48.390625 35.179688 51.765625 29.894531 57.199219 26.109375 C 62.632812 29.894531 66.007812 35.179688 66.007812 41.03125 " fill-opacity="1" fill-rule="nonzero"/><path fill="#e1f2fa" d="M 24.335938 41.03125 C 24.335938 46.703125 21.164062 51.847656 16.019531 55.605469 C 10.875 51.847656 7.703125 46.703125 7.703125 41.03125 C 7.703125 35.359375 10.875 30.214844 16.019531 26.457031 C 21.164062 30.214844 24.335938 35.359375 24.335938 41.03125 " fill-opacity="1" fill-rule="nonzero"/><path fill="#087799" d="M 57.960938 42.730469 C 57.960938 50.386719 52.953125 59.8125 36.316406 59.8125 C 21.820312 59.8125 14.675781 49.851562 14.675781 42.195312 C 14.675781 34.539062 24.367188 29.585938 36.316406 29.585938 C 48.269531 29.585938 57.960938 35.078125 57.960938 42.730469 " fill-opacity="1" fill-rule="nonzero"/><path fill="#02b8f2" d="M 57.960938 43.269531 C 57.960938 50.921875 52.953125 60.347656 36.316406 60.347656 C 21.820312 60.347656 14.675781 50.386719 14.675781 42.730469 C 14.675781 35.078125 24.367188 30.121094 36.316406 30.121094 C 48.269531 30.121094 57.960938 35.613281 57.960938 43.269531 " fill-opacity="1" fill-rule="nonzero"/><path fill="#e1f2fa" d="M 50.191406 22.5 C 49.734375 23.933594 48.339844 25.265625 46.160156 26.328125 C 43.390625 27.679688 39.707031 28.421875 35.78125 28.421875 C 31.855469 28.421875 28.171875 27.679688 25.402344 26.328125 C 23.597656 25.449219 22.335938 24.382812 21.691406 23.234375 C 21.527344 23.304688 21.363281 23.378906 21.203125 23.453125 C 21.890625 24.71875 23.242188 25.871094 25.167969 26.8125 C 28.007812 28.199219 31.777344 28.960938 35.78125 28.960938 C 39.789062 28.960938 43.554688 28.199219 46.398438 26.8125 C 48.699219 25.6875 50.183594 24.253906 50.695312 22.691406 C 50.527344 22.625 50.359375 22.5625 50.191406 22.5 " fill-opacity="1" fill-rule="nonzero"/><path fill="#005c9c" d="M 31.847656 46.53125 C 31.847656 49.421875 30.703125 45.324219 29.074219 45.324219 C 27.445312 45.324219 25.945312 49.421875 25.945312 46.53125 C 25.945312 43.644531 27.265625 41.300781 28.894531 41.300781 C 30.527344 41.300781 31.847656 43.644531 31.847656 46.53125 " fill-opacity="1" fill-rule="nonzero"/><path fill="#005c9c" d="M 43.832031 46.53125 C 43.832031 49.421875 42.6875 45.324219 41.058594 45.324219 C 39.429688 45.324219 37.925781 49.421875 37.925781 46.53125 C 37.925781 43.644531 39.25 41.300781 40.878906 41.300781 C 42.507812 41.300781 43.832031 43.644531 43.832031 46.53125 " fill-opacity="1" fill-rule="nonzero"/><path fill="#50cef6" d="M 18.394531 40.695312 C 18.210938 40.695312 18.050781 40.605469 17.910156 40.402344 C 17.203125 39.355469 18.289062 37.378906 20.335938 35.992188 C 21.550781 35.171875 22.828125 34.738281 23.816406 34.738281 C 24.5 34.738281 25.042969 34.945312 25.335938 35.375 C 26.042969 36.421875 24.039062 36.664062 21.988281 38.054688 C 20.335938 39.171875 19.160156 40.695312 18.394531 40.695312 " fill-opacity="1" fill-rule="nonzero"/><path fill="#50cef6" d="M 16.875 43.234375 C 16.398438 43.234375 16.011719 42.789062 16.011719 42.238281 C 16.011719 41.6875 16.398438 41.242188 16.875 41.242188 C 17.351562 41.242188 17.738281 41.6875 17.738281 42.238281 C 17.738281 42.789062 17.351562 43.234375 16.875 43.234375 " fill-opacity="1" fill-rule="nonzero"/><path fill="#fdfefe" d="M 35.417969 53.53125 C 34.078125 53.53125 32.992188 52.445312 32.992188 51.109375 C 32.992188 50.871094 33.183594 50.675781 33.421875 50.675781 C 33.664062 50.675781 33.855469 50.871094 33.855469 51.109375 C 33.855469 51.96875 34.554688 52.667969 35.417969 52.667969 C 36.277344 52.667969 36.976562 51.96875 36.976562 51.109375 C 36.976562 50.871094 37.171875 50.675781 37.410156 50.675781 C 37.648438 50.675781 37.839844 50.871094 37.839844 51.109375 C 37.839844 52.445312 36.753906 53.53125 35.417969 53.53125 " fill-opacity="1" fill-rule="nonzero"/><g clip-path="url(#87c14e35d5)"><path fill="#bfeef6" d="M 40.160156 61.738281 C 40.800781 61.683594 41.433594 61.617188 42.0625 61.539062 C 41.433594 61.617188 40.800781 61.683594 40.160156 61.738281 M 42.0625 61.539062 C 42.070312 61.535156 42.078125 61.535156 42.082031 61.535156 C 42.078125 61.535156 42.070312 61.535156 42.0625 61.539062 M 42.085938 61.535156 C 42.089844 61.535156 42.097656 61.53125 42.105469 61.53125 C 42.097656 61.53125 42.089844 61.535156 42.085938 61.535156 M 42.109375 61.53125 C 42.121094 61.53125 42.136719 61.527344 42.148438 61.527344 C 42.136719 61.527344 42.121094 61.53125 42.109375 61.53125 M 42.152344 61.527344 C 42.160156 61.523438 42.164062 61.523438 42.171875 61.523438 C 42.164062 61.523438 42.160156 61.523438 42.152344 61.527344 M 42.175781 61.523438 C 42.183594 61.523438 42.1875 61.519531 42.191406 61.519531 C 42.1875 61.519531 42.183594 61.523438 42.175781 61.523438 M 42.199219 61.519531 C 42.203125 61.519531 42.207031 61.519531 42.210938 61.519531 C 42.207031 61.519531 42.203125 61.519531 42.199219 61.519531 M 42.21875 61.515625 C 42.222656 61.515625 42.226562 61.515625 42.230469 61.515625 C 42.226562 61.515625 42.222656 61.515625 42.21875 61.515625 M 42.242188 61.515625 C 42.242188 61.515625 42.246094 61.515625 42.25 61.511719 C 42.246094 61.515625 42.242188 61.515625 42.242188 61.515625 M 42.296875 61.507812 C 42.300781 61.507812 42.300781 61.507812 42.300781 61.507812 C 42.300781 61.507812 42.296875 61.507812 42.296875 61.507812 M 42.316406 61.503906 C 42.316406 61.503906 42.320312 61.503906 42.320312 61.503906 C 42.320312 61.503906 42.316406 61.503906 42.316406 61.503906 M 42.335938 61.5 C 42.335938 61.5 42.335938 61.5 42.339844 61.5 C 42.335938 61.5 42.335938 61.5 42.335938 61.5 M 57.144531 55.992188 L 57.148438 55.992188 L 57.144531 55.992188 M 57.160156 55.984375 L 57.160156 55.984375 M 57.171875 55.976562 C 57.171875 55.976562 57.175781 55.972656 57.175781 55.972656 C 57.175781 55.972656 57.171875 55.976562 57.171875 55.976562 M 57.1875 55.964844 C 57.191406 55.964844 57.195312 55.960938 57.199219 55.957031 C 62.632812 52.171875 66.007812 46.882812 66.007812 41.03125 C 66.007812 46.882812 62.632812 52.171875 57.199219 55.957031 C 57.195312 55.960938 57.191406 55.964844 57.1875 55.964844 " fill-opacity="1" fill-rule="nonzero"/></g><g clip-path="url(#e5ea6909b6)"><path fill="#bfeef6" d="M 40.160156 61.738281 C 44.601562 60.75 48.585938 59.023438 51.832031 56.761719 C 52.96875 55.972656 54.011719 55.117188 54.953125 54.203125 C 55.65625 54.820312 56.40625 55.402344 57.199219 55.957031 C 57.195312 55.960938 57.191406 55.964844 57.1875 55.964844 C 57.183594 55.96875 57.179688 55.972656 57.175781 55.972656 C 57.175781 55.972656 57.171875 55.976562 57.171875 55.976562 C 57.167969 55.976562 57.164062 55.980469 57.160156 55.984375 C 57.15625 55.988281 57.152344 55.992188 57.148438 55.992188 L 57.144531 55.992188 C 53.144531 58.765625 48.035156 60.726562 42.339844 61.5 C 42.335938 61.5 42.335938 61.5 42.335938 61.5 C 42.332031 61.5 42.324219 61.503906 42.320312 61.503906 C 42.320312 61.503906 42.316406 61.503906 42.316406 61.503906 C 42.3125 61.503906 42.304688 61.503906 42.300781 61.507812 C 42.300781 61.507812 42.300781 61.507812 42.296875 61.507812 C 42.28125 61.507812 42.265625 61.511719 42.25 61.511719 C 42.246094 61.515625 42.242188 61.515625 42.242188 61.515625 C 42.238281 61.515625 42.234375 61.515625 42.230469 61.515625 C 42.226562 61.515625 42.222656 61.515625 42.21875 61.515625 C 42.21875 61.515625 42.214844 61.519531 42.210938 61.519531 C 42.207031 61.519531 42.203125 61.519531 42.199219 61.519531 C 42.195312 61.519531 42.195312 61.519531 42.191406 61.519531 C 42.1875 61.519531 42.183594 61.523438 42.175781 61.523438 C 42.175781 61.523438 42.171875 61.523438 42.171875 61.523438 C 42.164062 61.523438 42.160156 61.523438 42.152344 61.527344 C 42.152344 61.527344 42.152344 61.527344 42.148438 61.527344 C 42.136719 61.527344 42.121094 61.53125 42.109375 61.53125 C 42.105469 61.53125 42.105469 61.53125 42.105469 61.53125 C 42.097656 61.53125 42.089844 61.535156 42.085938 61.535156 C 42.085938 61.535156 42.082031 61.535156 42.082031 61.535156 C 42.078125 61.535156 42.070312 61.535156 42.0625 61.539062 C 41.433594 61.617188 40.800781 61.683594 40.160156 61.738281 M 54.078125 28.664062 C 53.378906 28.050781 52.628906 27.464844 51.832031 26.914062 C 50.929688 26.285156 49.96875 25.695312 48.957031 25.152344 C 49.820312 24.394531 50.40625 23.5625 50.695312 22.691406 C 53.082031 23.609375 55.269531 24.765625 57.199219 26.109375 C 56.066406 26.898438 55.023438 27.753906 54.078125 28.664062 " fill-opacity="1" fill-rule="nonzero"/></g><path fill="#abe5f2" d="M 57.199219 55.957031 C 56.40625 55.402344 55.65625 54.820312 54.953125 54.203125 C 58.527344 50.746094 60.640625 46.46875 60.640625 41.835938 C 60.640625 36.839844 58.179688 32.253906 54.078125 28.664062 C 55.023438 27.753906 56.066406 26.898438 57.199219 26.109375 C 62.632812 29.894531 66.007812 35.179688 66.007812 41.03125 C 66.007812 46.882812 62.632812 52.171875 57.199219 55.957031 " fill-opacity="1" fill-rule="nonzero"/><path fill="#bfeef6" d="M 35.917969 20.207031 C 35.921875 20.207031 35.921875 20.207031 35.921875 20.207031 C 35.921875 20.207031 35.921875 20.207031 35.917969 20.207031 M 35.9375 20.207031 C 35.9375 20.207031 35.9375 20.207031 35.941406 20.207031 C 35.9375 20.207031 35.9375 20.207031 35.9375 20.207031 M 35.953125 20.207031 C 35.953125 20.207031 35.957031 20.207031 35.957031 20.207031 C 35.957031 20.207031 35.953125 20.207031 35.953125 20.207031 M 35.972656 20.207031 L 35.972656 20.207031 M 35.988281 20.203125 C 35.988281 20.203125 35.992188 20.203125 35.992188 20.203125 C 35.992188 20.203125 35.988281 20.203125 35.988281 20.203125 M 36.007812 20.203125 L 36.007812 20.203125 M 36.027344 20.203125 L 36.027344 20.203125 M 36.078125 20.203125 C 36.078125 20.203125 36.078125 20.203125 36.082031 20.203125 C 36.078125 20.203125 36.078125 20.203125 36.078125 20.203125 M 36.09375 20.203125 C 36.097656 20.203125 36.097656 20.203125 36.101562 20.203125 C 36.097656 20.203125 36.097656 20.203125 36.09375 20.203125 M 36.113281 20.203125 C 36.113281 20.203125 36.117188 20.203125 36.117188 20.203125 C 36.117188 20.203125 36.113281 20.203125 36.113281 20.203125 M 36.128906 20.203125 C 36.128906 20.203125 36.132812 20.203125 36.132812 20.203125 C 36.132812 20.203125 36.132812 20.203125 36.128906 20.203125 M 36.148438 20.203125 C 36.148438 20.203125 36.148438 20.203125 36.152344 20.203125 C 36.148438 20.203125 36.148438 20.203125 36.148438 20.203125 M 36.164062 20.203125 C 36.164062 20.203125 36.167969 20.203125 36.167969 20.203125 C 36.167969 20.203125 36.164062 20.203125 36.164062 20.203125 M 36.179688 20.203125 C 36.183594 20.203125 36.183594 20.203125 36.1875 20.203125 C 36.183594 20.203125 36.183594 20.203125 36.179688 20.203125 M 36.199219 20.203125 C 36.199219 20.203125 36.203125 20.203125 36.203125 20.203125 C 36.203125 20.203125 36.199219 20.203125 36.199219 20.203125 M 36.21875 20.199219 L 36.21875 20.199219 M 36.234375 20.199219 C 36.234375 20.199219 36.238281 20.199219 36.238281 20.199219 C 36.238281 20.199219 36.234375 20.199219 36.234375 20.199219 M 36.269531 20.199219 C 36.273438 20.199219 36.273438 20.199219 36.277344 20.199219 C 36.273438 20.199219 36.273438 20.199219 36.269531 20.199219 M 36.289062 20.199219 C 36.289062 20.199219 36.292969 20.199219 36.292969 20.199219 C 36.292969 20.199219 36.289062 20.199219 36.289062 20.199219 M 36.304688 20.199219 C 36.308594 20.199219 36.308594 20.199219 36.3125 20.199219 C 36.308594 20.199219 36.308594 20.199219 36.304688 20.199219 M 36.324219 20.199219 C 36.324219 20.199219 36.328125 20.199219 36.328125 20.199219 C 36.328125 20.199219 36.324219 20.199219 36.324219 20.199219 M 36.339844 20.199219 C 36.339844 20.199219 36.34375 20.199219 36.347656 20.199219 C 36.34375 20.199219 36.339844 20.199219 36.339844 20.199219 M 36.355469 20.199219 C 36.359375 20.199219 36.363281 20.199219 36.363281 20.199219 C 36.359375 20.199219 36.359375 20.199219 36.355469 20.199219 M 36.375 20.199219 C 36.375 20.199219 36.378906 20.199219 36.378906 20.199219 C 36.378906 20.199219 36.375 20.199219 36.375 20.199219 M 36.390625 20.199219 C 36.394531 20.199219 36.394531 20.199219 36.398438 20.199219 C 36.394531 20.199219 36.394531 20.199219 36.390625 20.199219 M 36.410156 20.199219 C 36.410156 20.199219 36.414062 20.199219 36.414062 20.199219 C 36.414062 20.199219 36.410156 20.199219 36.410156 20.199219 M 36.429688 20.199219 L 36.429688 20.199219 M 36.445312 20.199219 C 36.445312 20.199219 36.449219 20.199219 36.449219 20.199219 C 36.449219 20.199219 36.445312 20.199219 36.445312 20.199219 M 36.464844 20.199219 C 36.46875 20.199219 36.46875 20.199219 36.472656 20.199219 C 36.46875 20.199219 36.46875 20.199219 36.464844 20.199219 M 36.484375 20.199219 C 36.484375 20.199219 36.488281 20.199219 36.488281 20.199219 C 36.488281 20.199219 36.484375 20.199219 36.484375 20.199219 M 36.5 20.199219 C 36.5 20.199219 36.503906 20.199219 36.503906 20.199219 C 36.503906 20.199219 36.5 20.199219 36.5 20.199219 M 36.515625 20.195312 C 36.519531 20.195312 36.519531 20.195312 36.523438 20.195312 C 36.519531 20.195312 36.519531 20.195312 36.515625 20.195312 M 36.535156 20.195312 C 36.535156 20.195312 36.539062 20.195312 36.539062 20.195312 C 36.539062 20.195312 36.535156 20.195312 36.535156 20.195312 M 36.550781 20.195312 C 36.554688 20.195312 36.554688 20.195312 36.558594 20.195312 C 36.554688 20.195312 36.554688 20.195312 36.550781 20.195312 M 36.566406 20.195312 C 36.570312 20.195312 36.574219 20.195312 36.574219 20.195312 C 36.574219 20.195312 36.570312 20.195312 36.566406 20.195312 M 36.585938 20.195312 C 36.585938 20.195312 36.589844 20.195312 36.59375 20.195312 C 36.589844 20.195312 36.585938 20.195312 36.585938 20.195312 M 36.601562 20.195312 C 36.605469 20.195312 36.605469 20.195312 36.609375 20.195312 C 36.605469 20.195312 36.605469 20.195312 36.601562 20.195312 M 36.621094 20.195312 C 36.621094 20.195312 36.625 20.195312 36.625 20.195312 C 36.625 20.195312 36.621094 20.195312 36.621094 20.195312 M 36.640625 20.195312 C 36.640625 20.195312 36.640625 20.195312 36.644531 20.195312 C 36.640625 20.195312 36.640625 20.195312 36.640625 20.195312 M 36.660156 20.195312 C 36.660156 20.195312 36.664062 20.195312 36.664062 20.195312 C 36.664062 20.195312 36.660156 20.195312 36.660156 20.195312 M 36.675781 20.195312 C 36.679688 20.195312 36.679688 20.195312 36.683594 20.195312 C 36.679688 20.195312 36.679688 20.195312 36.675781 20.195312 M 36.695312 20.195312 C 36.695312 20.195312 36.699219 20.195312 36.699219 20.195312 C 36.699219 20.195312 36.695312 20.195312 36.695312 20.195312 M 36.710938 20.195312 C 36.714844 20.195312 36.714844 20.195312 36.71875 20.195312 C 36.714844 20.195312 36.714844 20.195312 36.710938 20.195312 M 36.726562 20.195312 C 36.730469 20.195312 36.734375 20.195312 36.734375 20.195312 C 36.734375 20.195312 36.730469 20.195312 36.726562 20.195312 M 36.746094 20.195312 C 36.75 20.195312 36.75 20.195312 36.753906 20.195312 C 36.75 20.195312 36.75 20.195312 36.746094 20.195312 M 36.761719 20.195312 C 36.765625 20.195312 36.765625 20.195312 36.769531 20.195312 C 36.765625 20.195312 36.765625 20.195312 36.761719 20.195312 M 36.78125 20.195312 C 36.78125 20.195312 36.785156 20.195312 36.785156 20.195312 C 36.785156 20.195312 36.78125 20.195312 36.78125 20.195312 M 36.796875 20.195312 C 36.796875 20.195312 36.800781 20.195312 36.804688 20.195312 C 36.800781 20.195312 36.796875 20.195312 36.796875 20.195312 M 36.8125 20.195312 C 36.816406 20.195312 36.820312 20.195312 36.820312 20.195312 C 36.820312 20.195312 36.816406 20.195312 36.8125 20.195312 M 36.832031 20.195312 C 36.835938 20.195312 36.835938 20.195312 36.835938 20.195312 C 36.835938 20.195312 36.835938 20.195312 36.832031 20.195312 " fill-opacity="1" fill-rule="nonzero"/><path fill="#bfeef6" d="M 48.445312 24.886719 C 47.453125 24.378906 46.410156 23.910156 45.328125 23.492188 C 45.160156 23.429688 44.996094 23.367188 44.824219 23.304688 C 40.828125 21.832031 36.296875 21 31.488281 21 C 30.371094 21 29.265625 21.046875 28.183594 21.132812 C 30.636719 20.585938 33.234375 20.265625 35.917969 20.207031 C 35.921875 20.207031 35.921875 20.207031 35.921875 20.207031 C 35.925781 20.207031 35.933594 20.207031 35.9375 20.207031 C 35.9375 20.207031 35.9375 20.207031 35.941406 20.207031 C 35.945312 20.207031 35.949219 20.207031 35.953125 20.207031 C 35.953125 20.207031 35.957031 20.207031 35.957031 20.207031 C 35.960938 20.207031 35.964844 20.207031 35.972656 20.207031 C 35.980469 20.207031 35.984375 20.207031 35.988281 20.203125 C 35.988281 20.203125 35.992188 20.203125 35.992188 20.203125 C 35.996094 20.203125 36.003906 20.203125 36.007812 20.203125 C 36.015625 20.203125 36.019531 20.203125 36.027344 20.203125 C 36.039062 20.203125 36.050781 20.203125 36.0625 20.203125 C 36.066406 20.203125 36.070312 20.203125 36.078125 20.203125 C 36.078125 20.203125 36.078125 20.203125 36.082031 20.203125 C 36.085938 20.203125 36.089844 20.203125 36.09375 20.203125 C 36.097656 20.203125 36.097656 20.203125 36.101562 20.203125 C 36.105469 20.203125 36.109375 20.203125 36.113281 20.203125 C 36.113281 20.203125 36.117188 20.203125 36.117188 20.203125 C 36.121094 20.203125 36.125 20.203125 36.128906 20.203125 C 36.132812 20.203125 36.132812 20.203125 36.132812 20.203125 C 36.140625 20.203125 36.144531 20.203125 36.148438 20.203125 C 36.148438 20.203125 36.148438 20.203125 36.152344 20.203125 C 36.15625 20.203125 36.160156 20.203125 36.164062 20.203125 C 36.164062 20.203125 36.167969 20.203125 36.167969 20.203125 C 36.171875 20.203125 36.175781 20.203125 36.179688 20.203125 C 36.183594 20.203125 36.183594 20.203125 36.1875 20.203125 C 36.191406 20.203125 36.195312 20.203125 36.199219 20.203125 C 36.199219 20.203125 36.203125 20.203125 36.203125 20.203125 C 36.207031 20.199219 36.210938 20.199219 36.21875 20.199219 C 36.226562 20.199219 36.230469 20.199219 36.234375 20.199219 C 36.234375 20.199219 36.238281 20.199219 36.238281 20.199219 C 36.25 20.199219 36.261719 20.199219 36.269531 20.199219 C 36.273438 20.199219 36.273438 20.199219 36.277344 20.199219 C 36.28125 20.199219 36.285156 20.199219 36.289062 20.199219 C 36.289062 20.199219 36.292969 20.199219 36.292969 20.199219 C 36.296875 20.199219 36.300781 20.199219 36.304688 20.199219 C 36.308594 20.199219 36.308594 20.199219 36.3125 20.199219 C 36.316406 20.199219 36.320312 20.199219 36.324219 20.199219 C 36.324219 20.199219 36.328125 20.199219 36.328125 20.199219 C 36.332031 20.199219 36.335938 20.199219 36.339844 20.199219 C 36.339844 20.199219 36.34375 20.199219 36.347656 20.199219 C 36.351562 20.199219 36.351562 20.199219 36.355469 20.199219 C 36.359375 20.199219 36.359375 20.199219 36.363281 20.199219 C 36.367188 20.199219 36.371094 20.199219 36.375 20.199219 C 36.375 20.199219 36.378906 20.199219 36.378906 20.199219 C 36.382812 20.199219 36.386719 20.199219 36.390625 20.199219 C 36.394531 20.199219 36.394531 20.199219 36.398438 20.199219 C 36.402344 20.199219 36.40625 20.199219 36.410156 20.199219 C 36.410156 20.199219 36.414062 20.199219 36.414062 20.199219 C 36.417969 20.199219 36.421875 20.199219 36.429688 20.199219 C 36.4375 20.199219 36.441406 20.199219 36.445312 20.199219 C 36.445312 20.199219 36.449219 20.199219 36.449219 20.199219 C 36.453125 20.199219 36.460938 20.199219 36.464844 20.199219 C 36.46875 20.199219 36.46875 20.199219 36.472656 20.199219 C 36.476562 20.199219 36.480469 20.199219 36.484375 20.199219 C 36.484375 20.199219 36.488281 20.199219 36.488281 20.199219 C 36.492188 20.199219 36.496094 20.199219 36.5 20.199219 C 36.5 20.199219 36.503906 20.199219 36.503906 20.199219 C 36.507812 20.199219 36.511719 20.199219 36.515625 20.195312 C 36.519531 20.195312 36.519531 20.195312 36.523438 20.195312 C 36.527344 20.195312 36.53125 20.195312 36.535156 20.195312 C 36.535156 20.195312 36.539062 20.195312 36.539062 20.195312 C 36.542969 20.195312 36.546875 20.195312 36.550781 20.195312 C 36.554688 20.195312 36.554688 20.195312 36.558594 20.195312 C 36.5625 20.195312 36.5625 20.195312 36.566406 20.195312 C 36.570312 20.195312 36.574219 20.195312 36.574219 20.195312 C 36.578125 20.195312 36.582031 20.195312 36.585938 20.195312 C 36.585938 20.195312 36.589844 20.195312 36.59375 20.195312 C 36.59375 20.195312 36.597656 20.195312 36.601562 20.195312 C 36.605469 20.195312 36.605469 20.195312 36.609375 20.195312 C 36.613281 20.195312 36.617188 20.195312 36.621094 20.195312 C 36.621094 20.195312 36.625 20.195312 36.625 20.195312 C 36.628906 20.195312 36.636719 20.195312 36.640625 20.195312 C 36.640625 20.195312 36.640625 20.195312 36.644531 20.195312 C 36.648438 20.195312 36.65625 20.195312 36.660156 20.195312 C 36.660156 20.195312 36.664062 20.195312 36.664062 20.195312 C 36.667969 20.195312 36.671875 20.195312 36.675781 20.195312 C 36.679688 20.195312 36.679688 20.195312 36.683594 20.195312 C 36.6875 20.195312 36.691406 20.195312 36.695312 20.195312 C 36.695312 20.195312 36.699219 20.195312 36.699219 20.195312 C 36.703125 20.195312 36.707031 20.195312 36.710938 20.195312 C 36.714844 20.195312 36.714844 20.195312 36.71875 20.195312 C 36.722656 20.195312 36.722656 20.195312 36.726562 20.195312 C 36.730469 20.195312 36.734375 20.195312 36.734375 20.195312 C 36.738281 20.195312 36.742188 20.195312 36.746094 20.195312 C 36.75 20.195312 36.75 20.195312 36.753906 20.195312 C 36.753906 20.195312 36.757812 20.195312 36.761719 20.195312 C 36.765625 20.195312 36.765625 20.195312 36.769531 20.195312 C 36.773438 20.195312 36.777344 20.195312 36.78125 20.195312 C 36.78125 20.195312 36.785156 20.195312 36.785156 20.195312 C 36.789062 20.195312 36.792969 20.195312 36.796875 20.195312 C 36.796875 20.195312 36.800781 20.195312 36.804688 20.195312 C 36.808594 20.195312 36.8125 20.195312 36.8125 20.195312 C 36.816406 20.195312 36.820312 20.195312 36.820312 20.195312 C 36.824219 20.195312 36.828125 20.195312 36.832031 20.195312 C 36.835938 20.195312 36.835938 20.195312 36.835938 20.195312 C 36.84375 20.195312 36.847656 20.195312 36.855469 20.195312 C 41.660156 20.195312 46.195312 21.027344 50.191406 22.5 C 49.921875 23.339844 49.332031 24.148438 48.445312 24.886719 " fill-opacity="1" fill-rule="nonzero"/><path fill="#abe5f2" d="M 48.957031 25.152344 C 48.789062 25.0625 48.617188 24.972656 48.445312 24.886719 C 49.332031 24.148438 49.921875 23.339844 50.191406 22.5 C 50.359375 22.5625 50.527344 22.625 50.695312 22.691406 C 50.40625 23.5625 49.820312 24.394531 48.957031 25.152344 " fill-opacity="1" fill-rule="nonzero"/><path fill="#087799" d="M 70.210938 41.121094 C 70.210938 36.855469 68.617188 33.238281 66.417969 32.007812 L 67.082031 31.554688 L 64.578125 31.554688 C 61.648438 31.722656 59.300781 35.941406 59.300781 41.121094 C 59.300781 46.300781 61.644531 50.515625 64.574219 50.683594 L 67.082031 50.691406 L 66.320312 50.289062 C 68.570312 49.109375 70.210938 45.453125 70.210938 41.121094 " fill-opacity="1" fill-rule="nonzero"/><path fill="#02b8f2" d="M 72.535156 41.121094 C 72.535156 46.40625 70.09375 50.691406 67.082031 50.691406 C 64.070312 50.691406 61.625 46.40625 61.625 41.121094 C 61.625 35.835938 64.070312 31.554688 67.082031 31.554688 C 70.09375 31.554688 72.535156 35.835938 72.535156 41.121094 " fill-opacity="1" fill-rule="nonzero"/><path fill="#038abd" d="M 2.425781 41.121094 C 2.425781 36.855469 4.019531 33.238281 6.21875 32.007812 L 5.554688 31.554688 L 8.058594 31.554688 C 10.988281 31.722656 13.335938 35.941406 13.335938 41.121094 C 13.335938 46.300781 10.992188 50.515625 8.0625 50.683594 L 5.554688 50.691406 L 6.316406 50.289062 C 4.066406 49.109375 2.425781 45.453125 2.425781 41.121094 " fill-opacity="1" fill-rule="nonzero"/><path fill="#02b8f2" d="M 0.101562 41.121094 C 0.101562 46.40625 2.542969 50.691406 5.554688 50.691406 C 8.566406 50.691406 11.011719 46.40625 11.011719 41.121094 C 11.011719 35.835938 8.566406 31.554688 5.554688 31.554688 C 2.542969 31.554688 0.101562 35.835938 0.101562 41.121094 " fill-opacity="1" fill-rule="nonzero"/><path fill="#038abd" d="M 29.367188 38.886719 C 29.503906 39.234375 28.894531 39.792969 28.007812 40.136719 C 27.121094 40.480469 26.292969 40.480469 26.160156 40.136719 C 26.023438 39.792969 26.636719 39.234375 27.519531 38.886719 C 28.40625 38.542969 29.234375 38.542969 29.367188 38.886719 " fill-opacity="1" fill-rule="nonzero"/><path fill="#038abd" d="M 40.46875 38.710938 C 40.332031 39.054688 40.941406 39.613281 41.828125 39.957031 C 42.714844 40.300781 43.542969 40.300781 43.675781 39.957031 C 43.8125 39.613281 43.199219 39.054688 42.316406 38.710938 C 41.429688 38.363281 40.601562 38.363281 40.46875 38.710938 " fill-opacity="1" fill-rule="nonzero"/><path fill="#038abd" d="M 62.410156 47.65625 C 61.582031 48.324219 60.703125 48.945312 59.796875 49.496094 C 58.773438 50.121094 57.71875 50.675781 56.65625 51.195312 C 56.125 51.457031 55.59375 51.703125 55.050781 51.953125 C 54.492188 52.207031 53.917969 52.414062 53.347656 52.597656 C 52.773438 52.785156 52.195312 52.9375 51.613281 53.082031 C 51.035156 53.21875 50.453125 53.34375 49.871094 53.453125 C 48.707031 53.671875 47.535156 53.839844 46.363281 53.976562 C 45.191406 54.109375 44.019531 54.214844 42.847656 54.289062 C 41.671875 54.363281 40.5 54.417969 39.316406 54.433594 C 39.078125 54.4375 38.882812 54.246094 38.878906 54.007812 C 38.875 53.773438 39.058594 53.582031 39.292969 53.570312 C 40.453125 53.523438 41.617188 53.441406 42.773438 53.335938 C 43.929688 53.230469 45.082031 53.101562 46.230469 52.9375 C 47.378906 52.773438 48.519531 52.582031 49.644531 52.335938 C 50.210938 52.21875 50.769531 52.082031 51.324219 51.933594 C 51.875 51.78125 52.421875 51.621094 52.957031 51.433594 C 53.488281 51.246094 54.015625 51.039062 54.511719 50.796875 C 55.027344 50.546875 55.550781 50.285156 56.0625 50.019531 C 57.085938 49.484375 58.089844 48.921875 59.042969 48.300781 C 59.902344 47.75 60.710938 47.144531 61.484375 46.484375 C 61.757812 46.917969 62.066406 47.3125 62.410156 47.65625 " fill-opacity="1" fill-rule="nonzero"/><path fill="#038abd" d="M 43.324219 54.035156 C 43.324219 54.84375 42.105469 55.496094 40.601562 55.496094 C 39.097656 55.496094 37.878906 54.84375 37.878906 54.035156 C 37.878906 53.226562 39.097656 52.574219 40.601562 52.574219 C 42.105469 52.574219 43.324219 53.226562 43.324219 54.035156 " fill-opacity="1" fill-rule="nonzero"/></svg>