<svg xmlns="http://www.w3.org/2000/svg" xmlns:xlink="http://www.w3.org/1999/xlink" width="500" zoomAndPan="magnify" viewBox="0 0 375 374.999991" height="500" preserveAspectRatio="xMidYMid meet" version="1.0"><defs><clipPath id="10fb854067"><path d="M 2.578125 0 L 372.328125 0 L 372.328125 375 L 2.578125 375 Z M 2.578125 0 " clip-rule="nonzero"/></clipPath></defs><g clip-path="url(#10fb854067)"><path fill="#a6a6a6" d="M 318.257812 54.996094 C 283.332031 19.605469 236.894531 0.113281 187.5 0.113281 C 138.105469 0.113281 91.667969 19.605469 56.742188 54.996094 C 21.8125 90.390625 2.578125 137.445312 2.578125 187.5 C 2.578125 237.554688 21.8125 284.609375 56.742188 320.003906 C 91.667969 355.394531 138.105469 374.886719 187.5 374.886719 C 236.894531 374.886719 283.332031 355.394531 318.257812 320.003906 C 353.1875 284.609375 372.421875 237.554688 372.421875 187.5 C 372.421875 137.445312 353.1875 90.390625 318.257812 54.996094 Z M 274.167969 80.652344 L 282.296875 46.429688 C 314.667969 68.839844 338.964844 102.375 349.78125 141.558594 L 345.523438 142.386719 C 339.164062 143.628906 334.046875 148.542969 332.488281 154.914062 L 330.835938 161.660156 C 330.816406 161.738281 330.804688 161.789062 330.683594 161.832031 C 330.566406 161.875 330.523438 161.84375 330.460938 161.796875 L 320.59375 154.300781 C 315.480469 150.410156 308.519531 149.839844 302.855469 152.847656 L 290.542969 159.378906 C 284.636719 162.511719 281.222656 168.644531 281.632812 175.390625 C 282.042969 182.132812 286.175781 187.792969 292.417969 190.171875 L 293.003906 190.390625 C 293.070312 190.417969 293.121094 190.4375 293.148438 190.558594 C 293.179688 190.679688 293.144531 190.71875 293.097656 190.777344 L 285.425781 199.714844 C 285.351562 199.804688 285.21875 199.824219 285.117188 199.757812 L 264.445312 186.242188 C 259.703125 183.140625 253.792969 182.675781 248.636719 184.996094 C 243.480469 187.316406 239.859375 192.070312 238.949219 197.710938 L 237.351562 207.585938 C 236.453125 213.160156 238.34375 218.796875 242.414062 222.65625 L 253.199219 232.878906 C 253.28125 232.960938 253.296875 233.089844 253.234375 233.1875 L 235.660156 260.179688 C 233.992188 262.75 233.042969 265.734375 232.917969 268.808594 L 231.394531 307.453125 C 231.390625 307.515625 231.367188 307.570312 231.324219 307.613281 L 207.921875 330.855469 C 207.84375 330.933594 207.726562 330.949219 207.632812 330.894531 L 192.460938 321.886719 C 192.402344 321.851562 192.359375 321.796875 192.347656 321.730469 C 192.347656 321.730469 184.984375 287.878906 184.710938 287.128906 L 178.019531 268.925781 C 175.78125 262.847656 170.214844 258.554688 163.835938 257.992188 L 133.207031 255.292969 C 133.132812 255.285156 133.0625 255.242188 133.023438 255.171875 L 115.597656 224.726562 C 115.570312 224.679688 115.5625 224.625 115.566406 224.570312 L 119.949219 195.046875 C 119.960938 194.980469 119.992188 194.925781 120.042969 194.886719 L 146.796875 174.433594 C 146.863281 174.382812 146.953125 174.371094 147.03125 174.402344 L 172.957031 185.363281 C 174.433594 185.984375 175.984375 186.390625 177.574219 186.566406 L 213.476562 190.519531 C 217.570312 190.96875 221.65625 189.878906 224.996094 187.453125 L 248.785156 170.175781 C 255.191406 165.519531 257.511719 156.847656 254.296875 149.550781 L 252.089844 144.542969 C 249.527344 138.734375 244.042969 134.910156 237.773438 134.566406 L 170.964844 130.859375 C 170.929688 130.855469 170.894531 130.84375 170.863281 130.824219 C 170.792969 130.789062 170.757812 130.757812 170.753906 130.757812 C 170.722656 130.679688 170.746094 130.488281 170.785156 130.433594 C 170.792969 130.429688 170.835938 130.40625 170.917969 130.382812 L 190.976562 124.90625 C 193.628906 124.179688 196.085938 122.789062 198.082031 120.878906 L 222.609375 97.421875 C 222.648438 97.386719 222.695312 97.363281 222.75 97.359375 L 259.664062 93.507812 C 266.6875 92.773438 272.515625 87.609375 274.167969 80.652344 Z M 149.128906 66.902344 L 162.925781 40.582031 C 164.964844 36.691406 165.609375 32.171875 164.734375 27.855469 L 162.863281 18.601562 C 170.90625 17.398438 179.128906 16.769531 187.5 16.769531 C 195.9375 16.769531 204.234375 17.410156 212.34375 18.628906 C 212.34375 18.628906 210.367188 20.820312 210.027344 20.957031 L 190.480469 28.902344 C 187.6875 30.039062 185.179688 31.863281 183.21875 34.179688 L 152.769531 70.25 C 152.355469 70.738281 151.75 71.035156 151.113281 71.0625 C 150.148438 71.105469 149.550781 70.566406 149.269531 70.25 C 148.1875 69.027344 149.023438 67.105469 149.128906 66.902344 Z M 77.285156 58.464844 L 77.285156 83.453125 C 77.285156 90.433594 73.835938 96.863281 68.058594 100.660156 L 50.363281 112.296875 C 46.261719 114.992188 42.785156 118.433594 40.03125 122.523438 L 23.96875 146.371094 C 32.464844 111.695312 51.4375 81.167969 77.285156 58.464844 Z M 88.027344 304.3125 L 85.699219 323.445312 C 59.355469 303.140625 39.0625 275.167969 28.105469 242.832031 L 38.566406 242.832031 C 39.851562 242.832031 41.03125 243.492188 41.722656 244.582031 L 62.871094 277.96875 C 63.824219 279.46875 64.957031 280.835938 66.257812 282.035156 L 86.828125 301.046875 C 87.722656 301.871094 88.175781 303.097656 88.027344 304.3125 Z M 187.5 358.230469 C 155.890625 358.230469 126.289062 349.355469 100.984375 333.949219 L 104.34375 306.351562 C 105.140625 299.78125 102.730469 293.195312 97.90625 288.738281 C 97.90625 288.738281 76.882812 269.25 76.703125 268.976562 L 55.554688 235.585938 C 51.824219 229.691406 45.472656 226.175781 38.566406 226.175781 L 23.375 226.175781 C 20.523438 213.746094 19.015625 200.796875 19.015625 187.5 C 19.015625 186.0625 19.035156 184.632812 19.070312 183.207031 L 53.609375 131.917969 C 55.128906 129.652344 57.042969 127.753906 59.3125 126.261719 L 77 114.636719 C 87.46875 107.757812 93.722656 96.097656 93.722656 83.453125 L 93.722656 45.726562 C 109.679688 34.855469 127.566406 26.679688 146.734375 21.832031 L 148.632812 31.203125 C 148.738281 31.734375 148.660156 32.289062 148.410156 32.765625 L 134.613281 59.085938 C 133.75 60.730469 132.632812 65.050781 132.632812 65.050781 C 131.511719 70.796875 133.027344 76.644531 136.789062 81.09375 C 140.378906 85.335938 145.519531 87.722656 151 87.722656 C 151.265625 87.722656 159.210938 88.117188 165.257812 81.078125 L 195.707031 45.011719 C 195.949219 44.726562 196.257812 44.503906 196.601562 44.363281 L 216.144531 36.417969 C 218.925781 35.289062 221.425781 33.476562 223.375 31.175781 L 230.753906 22.484375 C 243.738281 25.984375 256.117188 31.007812 267.679688 37.375 C 267.488281 37.816406 258.183594 76.757812 258.183594 76.757812 C 258.160156 76.855469 258.078125 76.929688 257.976562 76.941406 L 221.0625 80.792969 C 217.433594 81.171875 213.976562 82.777344 211.324219 85.3125 L 186.796875 108.765625 C 186.769531 108.792969 186.734375 108.8125 186.695312 108.824219 L 166.636719 114.300781 C 160.09375 116.085938 155.304688 121.644531 154.4375 128.457031 C 153.570312 135.265625 156.8125 141.871094 162.695312 145.285156 C 164.9375 146.582031 167.488281 147.347656 170.066406 147.488281 L 236.875 151.195312 C 236.960938 151.203125 237.042969 151.257812 237.078125 151.339844 L 239.285156 156.34375 C 239.328125 156.445312 239.296875 156.570312 239.203125 156.636719 L 215.414062 173.917969 C 215.367188 173.953125 215.3125 173.96875 215.253906 173.960938 L 179.28125 169.988281 L 153.363281 159.03125 C 147.914062 156.726562 141.609375 157.535156 136.898438 161.136719 L 110.140625 181.59375 C 106.640625 184.273438 104.351562 188.167969 103.699219 192.566406 L 99.316406 222.09375 C 98.753906 225.875 99.488281 229.777344 101.378906 233.082031 L 118.804688 263.53125 C 121.527344 268.285156 126.378906 271.410156 131.785156 271.886719 L 162.414062 274.585938 C 162.507812 274.597656 162.585938 274.65625 162.617188 274.746094 L 169.320312 292.980469 L 176.292969 325.289062 C 177.28125 329.882812 180.148438 333.882812 184.152344 336.261719 L 199.328125 345.269531 C 201.941406 346.820312 204.847656 347.578125 207.738281 347.578125 C 212.003906 347.578125 216.234375 345.929688 219.429688 342.753906 L 242.828125 319.511719 C 245.878906 316.484375 247.648438 312.4375 247.820312 308.117188 L 249.34375 269.480469 C 249.347656 269.433594 249.359375 269.390625 249.382812 269.355469 L 266.957031 242.363281 C 271.445312 235.464844 270.382812 226.363281 264.429688 220.71875 L 253.644531 210.496094 C 253.589844 210.441406 253.5625 210.359375 253.574219 210.28125 L 255.171875 200.402344 C 255.183594 200.324219 255.191406 200.277344 255.308594 200.222656 C 255.421875 200.167969 255.464844 200.195312 255.535156 200.242188 L 276.207031 213.757812 C 283.128906 218.28125 292.421875 216.949219 297.832031 210.648438 L 305.5 201.710938 C 309.085938 197.535156 310.421875 191.839844 309.082031 186.472656 C 307.742188 181.109375 303.890625 176.746094 298.777344 174.800781 L 298.195312 174.578125 C 298.117188 174.550781 298.082031 174.523438 298.078125 174.523438 C 298.035156 174.460938 298.023438 174.273438 298.054688 174.210938 C 298.0625 174.203125 298.097656 174.175781 298.167969 174.136719 L 310.480469 167.605469 C 310.5625 167.5625 310.660156 167.570312 310.734375 167.625 L 320.601562 175.125 C 325.085938 178.53125 330.917969 179.429688 336.199219 177.523438 C 341.480469 175.617188 345.4375 171.1875 346.789062 165.671875 L 348.441406 158.925781 C 348.464844 158.835938 348.535156 158.765625 348.628906 158.746094 L 353.429688 157.8125 C 355.105469 167.457031 355.988281 177.378906 355.988281 187.503906 C 355.984375 281.640625 280.402344 358.230469 187.5 358.230469 Z M 187.5 358.230469 " fill-opacity="1" fill-rule="nonzero"/></g></svg>