<svg xmlns="http://www.w3.org/2000/svg" xmlns:xlink="http://www.w3.org/1999/xlink" width="200" zoomAndPan="magnify" viewBox="0 0 150 149.999998" height="200" preserveAspectRatio="xMidYMid meet" version="1.0"><defs><clipPath id="0e56c22033"><path d="M 0 9.84375 L 150 9.84375 L 150 113 L 0 113 Z M 0 9.84375 " clip-rule="nonzero"/></clipPath><clipPath id="2593cc6179"><path d="M 10 115 L 37 115 L 37 140.34375 L 10 140.34375 Z M 10 115 " clip-rule="nonzero"/></clipPath><clipPath id="7853f9343b"><path d="M 79 115 L 105 115 L 105 140.34375 L 79 140.34375 Z M 79 115 " clip-rule="nonzero"/></clipPath></defs><g clip-path="url(#0e56c22033)"><path fill="#000000" d="M 87.851562 82.191406 L 91.824219 64.515625 L 104.535156 64.515625 L 97.769531 82.191406 Z M 64.289062 57.917969 L 64.289062 40.238281 L 90.523438 40.238281 L 86.550781 57.917969 Z M 64.289062 64.515625 L 85.070312 64.515625 L 81.097656 82.191406 L 64.289062 82.191406 Z M 36.921875 64.515625 L 57.703125 64.515625 L 57.703125 82.191406 L 40.894531 82.191406 Z M 31.46875 40.238281 L 57.703125 40.238281 L 57.703125 57.917969 L 35.4375 57.917969 Z M 28.6875 57.917969 L 14.832031 57.917969 L 8.085938 40.238281 L 24.714844 40.238281 Z M 24.101562 82.191406 L 17.351562 64.515625 L 30.167969 64.515625 L 34.140625 82.191406 Z M 107.058594 57.917969 L 93.304688 57.917969 L 97.273438 40.238281 L 113.820312 40.238281 Z M 146.726562 9.996094 L 127.773438 9.871094 C 127.640625 9.871094 127.507812 9.875 127.378906 9.886719 C 127.371094 9.890625 127.363281 9.890625 127.355469 9.890625 C 127.257812 9.898438 127.160156 9.917969 127.066406 9.933594 C 127.050781 9.9375 127.03125 9.941406 127.015625 9.945312 C 126.929688 9.960938 126.84375 9.984375 126.761719 10.007812 C 126.738281 10.015625 126.71875 10.023438 126.695312 10.03125 C 126.617188 10.054688 126.539062 10.085938 126.460938 10.113281 C 126.441406 10.125 126.417969 10.132812 126.394531 10.144531 C 126.320312 10.175781 126.246094 10.214844 126.171875 10.25 C 126.152344 10.261719 126.132812 10.269531 126.117188 10.28125 C 126.039062 10.324219 125.960938 10.371094 125.886719 10.417969 C 125.878906 10.425781 125.863281 10.433594 125.855469 10.441406 C 125.777344 10.496094 125.699219 10.550781 125.625 10.613281 C 125.621094 10.617188 125.613281 10.621094 125.609375 10.625 C 125.53125 10.6875 125.457031 10.757812 125.382812 10.828125 C 125.382812 10.828125 125.382812 10.832031 125.378906 10.832031 C 125.308594 10.90625 125.238281 10.980469 125.171875 11.058594 C 125.171875 11.0625 125.167969 11.0625 125.167969 11.066406 C 125.101562 11.144531 125.042969 11.222656 124.988281 11.304688 C 124.980469 11.3125 124.976562 11.320312 124.972656 11.324219 C 124.921875 11.402344 124.871094 11.484375 124.824219 11.566406 C 124.816406 11.582031 124.808594 11.597656 124.800781 11.613281 C 124.761719 11.6875 124.722656 11.769531 124.6875 11.847656 C 124.675781 11.871094 124.667969 11.890625 124.660156 11.914062 C 124.648438 11.941406 124.636719 11.964844 124.628906 11.988281 L 116.34375 33.640625 L 3.308594 33.640625 C 3.195312 33.640625 3.078125 33.648438 2.964844 33.65625 C 2.960938 33.65625 2.960938 33.65625 2.960938 33.65625 C 2.859375 33.671875 2.753906 33.683594 2.652344 33.707031 C 2.644531 33.707031 2.632812 33.710938 2.625 33.710938 C 2.535156 33.730469 2.445312 33.753906 2.355469 33.78125 C 2.335938 33.785156 2.316406 33.792969 2.296875 33.800781 C 2.238281 33.816406 2.179688 33.835938 2.121094 33.859375 C 2.097656 33.867188 2.078125 33.875 2.058594 33.886719 C 2.035156 33.894531 2.011719 33.90625 1.988281 33.914062 C 1.90625 33.949219 1.832031 33.984375 1.757812 34.027344 C 1.738281 34.035156 1.722656 34.042969 1.707031 34.050781 C 1.625 34.097656 1.546875 34.148438 1.46875 34.199219 C 1.460938 34.203125 1.453125 34.207031 1.445312 34.210938 C 1.363281 34.269531 1.28125 34.328125 1.207031 34.390625 C 1.203125 34.394531 1.203125 34.394531 1.199219 34.398438 C 1.121094 34.464844 1.042969 34.535156 0.972656 34.605469 C 0.96875 34.605469 0.96875 34.609375 0.964844 34.609375 C 0.894531 34.683594 0.828125 34.757812 0.761719 34.835938 C 0.757812 34.839844 0.753906 34.84375 0.75 34.851562 C 0.6875 34.925781 0.632812 35.003906 0.578125 35.082031 C 0.570312 35.09375 0.5625 35.105469 0.554688 35.117188 C 0.503906 35.191406 0.457031 35.265625 0.417969 35.34375 C 0.40625 35.363281 0.394531 35.378906 0.386719 35.398438 C 0.347656 35.472656 0.3125 35.546875 0.277344 35.625 C 0.269531 35.648438 0.257812 35.671875 0.25 35.695312 C 0.21875 35.769531 0.191406 35.847656 0.164062 35.929688 C 0.15625 35.949219 0.152344 35.972656 0.144531 35.992188 C 0.117188 36.078125 0.0976562 36.164062 0.078125 36.25 C 0.0742188 36.265625 0.0703125 36.28125 0.0664062 36.296875 C 0.046875 36.394531 0.03125 36.492188 0.0234375 36.59375 C 0.0234375 36.597656 0.0234375 36.605469 0.0195312 36.613281 C 0 36.832031 0 37.054688 0.0234375 37.273438 C 0.0234375 37.277344 0.0234375 37.277344 0.0234375 37.28125 C 0.03125 37.378906 0.046875 37.484375 0.0664062 37.585938 C 0.0703125 37.59375 0.0703125 37.605469 0.0742188 37.617188 C 0.09375 37.707031 0.117188 37.792969 0.140625 37.882812 C 0.148438 37.902344 0.152344 37.925781 0.160156 37.945312 C 0.179688 38.003906 0.199219 38.0625 0.222656 38.117188 L 18.757812 86.667969 C 18.765625 86.683594 18.769531 86.699219 18.777344 86.714844 C 18.792969 86.757812 18.8125 86.800781 18.832031 86.839844 C 18.855469 86.894531 18.878906 86.945312 18.90625 86.996094 C 18.921875 87.03125 18.9375 87.0625 18.957031 87.097656 C 19 87.171875 19.042969 87.246094 19.089844 87.316406 C 19.097656 87.320312 19.101562 87.332031 19.105469 87.339844 C 19.164062 87.421875 19.222656 87.503906 19.289062 87.582031 C 19.296875 87.589844 19.300781 87.597656 19.308594 87.605469 C 19.363281 87.671875 19.421875 87.738281 19.484375 87.800781 C 19.5 87.816406 19.515625 87.832031 19.527344 87.84375 C 19.589844 87.902344 19.648438 87.957031 19.710938 88.007812 C 19.722656 88.023438 19.738281 88.035156 19.753906 88.046875 C 19.832031 88.109375 19.910156 88.167969 19.992188 88.222656 C 19.996094 88.226562 20.003906 88.230469 20.011719 88.238281 C 20.082031 88.285156 20.15625 88.328125 20.230469 88.371094 C 20.261719 88.390625 20.296875 88.40625 20.332031 88.421875 C 20.378906 88.449219 20.433594 88.472656 20.484375 88.5 C 20.523438 88.515625 20.5625 88.53125 20.597656 88.546875 C 20.660156 88.570312 20.722656 88.59375 20.785156 88.613281 C 20.820312 88.625 20.847656 88.636719 20.882812 88.648438 C 20.96875 88.675781 21.050781 88.695312 21.136719 88.714844 C 21.167969 88.71875 21.199219 88.726562 21.226562 88.730469 C 21.304688 88.746094 21.378906 88.757812 21.453125 88.765625 C 21.476562 88.769531 21.5 88.769531 21.523438 88.773438 C 21.628906 88.785156 21.730469 88.789062 21.835938 88.789062 C 21.839844 88.789062 21.847656 88.789062 21.855469 88.789062 L 95.246094 88.789062 L 88.769531 105.71875 L 22.386719 105.835938 C 20.566406 105.839844 19.097656 107.320312 19.101562 109.140625 C 19.105469 110.960938 20.578125 112.433594 22.394531 112.433594 C 22.394531 112.433594 22.398438 112.433594 22.398438 112.433594 L 91.015625 112.3125 C 91.023438 112.3125 91.027344 112.3125 91.035156 112.3125 C 91.140625 112.3125 91.246094 112.304688 91.351562 112.296875 C 91.375 112.292969 91.398438 112.289062 91.421875 112.285156 C 91.496094 112.277344 91.574219 112.265625 91.648438 112.253906 C 91.679688 112.246094 91.707031 112.242188 91.734375 112.234375 C 91.828125 112.214844 91.917969 112.191406 92.003906 112.164062 C 92.039062 112.15625 92.066406 112.144531 92.097656 112.132812 C 92.15625 112.113281 92.214844 112.089844 92.273438 112.066406 C 92.3125 112.050781 92.351562 112.035156 92.390625 112.019531 C 92.441406 111.996094 92.492188 111.96875 92.542969 111.941406 C 92.578125 111.925781 92.613281 111.910156 92.644531 111.890625 C 92.722656 111.84375 92.804688 111.796875 92.882812 111.746094 C 92.882812 111.746094 92.886719 111.742188 92.886719 111.742188 C 92.96875 111.6875 93.042969 111.628906 93.117188 111.566406 C 93.136719 111.554688 93.152344 111.539062 93.167969 111.527344 C 93.226562 111.472656 93.289062 111.421875 93.34375 111.363281 C 93.359375 111.351562 93.375 111.335938 93.386719 111.320312 C 93.453125 111.257812 93.511719 111.1875 93.570312 111.121094 C 93.574219 111.113281 93.582031 111.109375 93.585938 111.101562 C 93.648438 111.023438 93.710938 110.941406 93.765625 110.859375 C 93.773438 110.84375 93.78125 110.832031 93.789062 110.820312 C 93.832031 110.753906 93.875 110.6875 93.914062 110.617188 C 93.933594 110.582031 93.949219 110.546875 93.964844 110.515625 C 93.992188 110.464844 94.015625 110.414062 94.039062 110.363281 C 94.058594 110.320312 94.078125 110.277344 94.09375 110.238281 C 94.101562 110.21875 94.105469 110.207031 94.113281 110.191406 L 102.824219 87.421875 C 102.988281 87.191406 103.128906 86.941406 103.234375 86.667969 L 121.769531 38.117188 C 121.792969 38.0625 121.8125 38.003906 121.832031 37.945312 C 121.835938 37.925781 121.84375 37.902344 121.847656 37.882812 C 121.875 37.792969 121.898438 37.707031 121.917969 37.617188 C 121.917969 37.605469 121.921875 37.59375 121.925781 37.585938 C 121.933594 37.53125 121.941406 37.480469 121.949219 37.425781 L 129.964844 16.484375 L 146.683594 16.59375 C 146.691406 16.59375 146.699219 16.59375 146.703125 16.59375 C 148.515625 16.59375 149.988281 15.128906 150 13.316406 C 150.011719 11.492188 148.542969 10.007812 146.726562 9.996094 " fill-opacity="1" fill-rule="nonzero"/></g><g clip-path="url(#2593cc6179)"><path fill="#000000" d="M 24.679688 133.5625 C 21.449219 134.191406 18.304688 132.074219 17.675781 128.835938 C 17.371094 127.269531 17.691406 125.675781 18.582031 124.351562 C 19.476562 123.027344 20.828125 122.128906 22.394531 121.824219 C 22.777344 121.75 23.160156 121.710938 23.539062 121.710938 C 26.335938 121.710938 28.839844 123.695312 29.394531 126.546875 C 30.027344 129.78125 27.910156 132.929688 24.679688 133.5625 Z M 21.132812 115.347656 C 17.839844 115.992188 14.996094 117.878906 13.121094 120.667969 C 11.246094 123.453125 10.566406 126.804688 11.210938 130.101562 C 12.378906 136.097656 17.644531 140.269531 23.53125 140.269531 C 24.328125 140.269531 25.132812 140.195312 25.941406 140.035156 C 32.738281 138.707031 37.1875 132.089844 35.863281 125.285156 C 34.535156 118.480469 27.929688 114.023438 21.132812 115.347656 " fill-opacity="1" fill-rule="nonzero"/></g><g clip-path="url(#7853f9343b)"><path fill="#000000" d="M 92.84375 133.5625 C 89.609375 134.191406 86.46875 132.074219 85.839844 128.835938 C 85.53125 127.269531 85.855469 125.675781 86.746094 124.351562 C 87.636719 123.027344 88.992188 122.128906 90.554688 121.824219 C 90.941406 121.75 91.320312 121.710938 91.703125 121.710938 C 94.496094 121.710938 97.003906 123.695312 97.558594 126.546875 C 98.1875 129.78125 96.074219 132.929688 92.84375 133.5625 Z M 89.292969 115.347656 C 86 115.992188 83.15625 117.878906 81.28125 120.667969 C 79.410156 123.453125 78.730469 126.804688 79.371094 130.101562 C 80.539062 136.097656 85.808594 140.269531 91.695312 140.269531 C 92.488281 140.269531 93.292969 140.195312 94.101562 140.035156 C 100.898438 138.707031 105.347656 132.089844 104.023438 125.285156 C 102.699219 118.480469 96.089844 114.023438 89.292969 115.347656 " fill-opacity="1" fill-rule="nonzero"/></g></svg>