<svg xmlns="http://www.w3.org/2000/svg" xmlns:xlink="http://www.w3.org/1999/xlink" width="200" zoomAndPan="magnify" viewBox="0 0 150 149.999998" height="200" preserveAspectRatio="xMidYMid meet" version="1.0"><defs><clipPath id="f1247178e7"><path d="M 21.46875 0 L 128.71875 0 L 128.71875 150 L 21.46875 150 Z M 21.46875 0 " clip-rule="nonzero"/></clipPath></defs><g clip-path="url(#f1247178e7)"><path fill="#000000" d="M 83.332031 0.539062 C 80.59375 0.210938 77.847656 0.0507812 75.09375 0.0546875 L 75.09375 0.0820312 C 72.339844 0.078125 69.59375 0.238281 66.855469 0.566406 C 39.566406 3.90625 21.46875 29.542969 21.46875 55.382812 C 21.46875 72.078125 29.851562 87.484375 38.410156 101.746094 C 47.191406 116.109375 56.851562 129.859375 67.386719 143 C 69.34375 145.480469 72.011719 149.75 75.09375 149.945312 L 75.09375 149.917969 C 78.175781 149.722656 80.84375 145.453125 82.800781 142.972656 C 93.335938 129.832031 102.996094 116.082031 111.777344 101.71875 C 120.335938 87.457031 128.71875 72.054688 128.71875 55.355469 C 128.71875 29.515625 110.621094 3.882812 83.332031 0.539062 Z M 75.09375 99.089844 C 73.601562 99.089844 72.113281 99.015625 70.625 98.871094 C 69.140625 98.722656 67.664062 98.503906 66.203125 98.214844 C 64.738281 97.925781 63.289062 97.5625 61.863281 97.128906 C 60.433594 96.695312 59.03125 96.195312 57.652344 95.625 C 56.269531 95.054688 54.921875 94.417969 53.605469 93.714844 C 52.289062 93.015625 51.011719 92.25 49.769531 91.421875 C 48.527344 90.59375 47.332031 89.707031 46.175781 88.761719 C 45.023438 87.816406 43.917969 86.816406 42.863281 85.761719 C 41.808594 84.707031 40.804688 83.605469 39.859375 82.453125 C 38.910156 81.300781 38.023438 80.105469 37.195312 78.867188 C 36.363281 77.628906 35.597656 76.351562 34.894531 75.035156 C 34.191406 73.722656 33.554688 72.378906 32.980469 71 C 32.410156 69.625 31.910156 68.222656 31.476562 66.796875 C 31.042969 65.371094 30.679688 63.925781 30.386719 62.464844 C 30.097656 61.003906 29.878906 59.53125 29.730469 58.046875 C 29.585938 56.5625 29.511719 55.078125 29.511719 53.585938 C 29.511719 52.097656 29.585938 50.609375 29.730469 49.128906 C 29.878906 47.644531 30.097656 46.171875 30.386719 44.710938 C 30.679688 43.25 31.042969 41.804688 31.476562 40.378906 C 31.910156 38.953125 32.410156 37.550781 32.980469 36.175781 C 33.554688 34.796875 34.191406 33.453125 34.894531 32.136719 C 35.597656 30.824219 36.363281 29.546875 37.195312 28.308594 C 38.023438 27.070312 38.910156 25.875 39.859375 24.722656 C 40.804688 23.570312 41.808594 22.464844 42.863281 21.414062 C 43.917969 20.359375 45.023438 19.359375 46.175781 18.414062 C 47.332031 17.46875 48.527344 16.582031 49.769531 15.753906 C 51.011719 14.925781 52.289062 14.160156 53.605469 13.457031 C 54.921875 12.757812 56.269531 12.121094 57.652344 11.550781 C 59.03125 10.980469 60.433594 10.476562 61.863281 10.046875 C 63.289062 9.613281 64.738281 9.25 66.203125 8.960938 C 67.664062 8.667969 69.140625 8.449219 70.625 8.304688 C 72.113281 8.160156 73.601562 8.085938 75.09375 8.085938 C 76.585938 8.085938 78.074219 8.160156 79.5625 8.304688 C 81.046875 8.449219 82.523438 8.667969 83.984375 8.960938 C 85.449219 9.25 86.898438 9.613281 88.324219 10.046875 C 89.753906 10.476562 91.15625 10.980469 92.535156 11.550781 C 93.917969 12.121094 95.265625 12.757812 96.582031 13.457031 C 97.898438 14.160156 99.175781 14.925781 100.417969 15.753906 C 101.660156 16.582031 102.855469 17.46875 104.011719 18.414062 C 105.164062 19.359375 106.269531 20.359375 107.324219 21.414062 C 108.378906 22.464844 109.382812 23.570312 110.328125 24.722656 C 111.277344 25.875 112.164062 27.070312 112.992188 28.308594 C 113.824219 29.546875 114.589844 30.824219 115.292969 32.136719 C 115.996094 33.453125 116.632812 34.796875 117.207031 36.175781 C 117.777344 37.550781 118.277344 38.953125 118.710938 40.378906 C 119.144531 41.804688 119.507812 43.25 119.800781 44.710938 C 120.089844 46.171875 120.308594 47.644531 120.457031 49.128906 C 120.601562 50.609375 120.675781 52.097656 120.675781 53.585938 C 120.675781 55.078125 120.601562 56.5625 120.457031 58.046875 C 120.308594 59.53125 120.089844 61.003906 119.800781 62.464844 C 119.507812 63.925781 119.144531 65.371094 118.710938 66.796875 C 118.277344 68.222656 117.777344 69.625 117.207031 71 C 116.632812 72.378906 115.996094 73.722656 115.292969 75.035156 C 114.589844 76.351562 113.824219 77.628906 112.992188 78.867188 C 112.164062 80.105469 111.277344 81.300781 110.328125 82.453125 C 109.382812 83.605469 108.378906 84.707031 107.324219 85.761719 C 106.269531 86.816406 105.164062 87.816406 104.011719 88.761719 C 102.855469 89.707031 101.660156 90.59375 100.417969 91.421875 C 99.175781 92.25 97.898438 93.015625 96.582031 93.714844 C 95.265625 94.417969 93.917969 95.054688 92.535156 95.625 C 91.15625 96.195312 89.753906 96.695312 88.324219 97.128906 C 86.898438 97.5625 85.449219 97.925781 83.984375 98.214844 C 82.523438 98.503906 81.046875 98.722656 79.5625 98.871094 C 78.074219 99.015625 76.585938 99.089844 75.09375 99.089844 Z M 75.09375 99.089844 " fill-opacity="1" fill-rule="nonzero"/></g><path fill="#000000" d="M 107.269531 38.683594 L 107.269531 70.71875 C 107.269531 71.140625 107.226562 71.558594 107.144531 71.96875 C 107.0625 72.382812 106.941406 72.785156 106.777344 73.175781 C 106.617188 73.566406 106.417969 73.9375 106.183594 74.285156 C 105.949219 74.636719 105.683594 74.960938 105.382812 75.261719 C 105.085938 75.558594 104.761719 75.824219 104.410156 76.058594 C 104.058594 76.292969 103.6875 76.492188 103.296875 76.652344 C 102.90625 76.8125 102.503906 76.933594 102.089844 77.019531 C 101.675781 77.101562 101.257812 77.140625 100.832031 77.140625 L 49.355469 77.140625 C 48.929688 77.140625 48.511719 77.101562 48.097656 77.019531 C 47.683594 76.933594 47.28125 76.8125 46.890625 76.652344 C 46.5 76.492188 46.128906 76.292969 45.777344 76.058594 C 45.425781 75.824219 45.101562 75.558594 44.804688 75.261719 C 44.503906 74.960938 44.238281 74.636719 44.003906 74.285156 C 43.769531 73.9375 43.570312 73.566406 43.410156 73.175781 C 43.246094 72.785156 43.125 72.382812 43.042969 71.96875 C 42.960938 71.558594 42.917969 71.140625 42.917969 70.71875 L 42.917969 38.683594 L 69.085938 60.566406 C 69.507812 60.910156 69.953125 61.21875 70.429688 61.484375 C 70.902344 61.75 71.394531 61.976562 71.90625 62.15625 C 72.417969 62.339844 72.941406 62.476562 73.476562 62.570312 C 74.011719 62.664062 74.550781 62.710938 75.09375 62.710938 C 75.636719 62.710938 76.175781 62.664062 76.710938 62.570312 C 77.246094 62.476562 77.769531 62.339844 78.28125 62.15625 C 78.792969 61.976562 79.285156 61.75 79.757812 61.484375 C 80.234375 61.21875 80.679688 60.910156 81.101562 60.566406 Z M 107.269531 38.683594 " fill-opacity="1" fill-rule="nonzero"/><path fill="#000000" d="M 78.355469 57.285156 L 106.507812 33.730469 C 106.859375 33.425781 107.085938 33.046875 107.1875 32.59375 C 107.289062 32.140625 107.246094 31.703125 107.058594 31.277344 C 106.871094 30.851562 106.578125 30.523438 106.175781 30.292969 C 105.773438 30.0625 105.339844 29.972656 104.878906 30.023438 L 45.3125 30.023438 C 44.851562 29.972656 44.417969 30.0625 44.015625 30.292969 C 43.613281 30.523438 43.316406 30.851562 43.132812 31.277344 C 42.945312 31.703125 42.902344 32.140625 43.003906 32.59375 C 43.105469 33.046875 43.332031 33.425781 43.683594 33.730469 L 71.835938 57.285156 C 72.296875 57.65625 72.808594 57.941406 73.367188 58.136719 C 73.925781 58.335938 74.5 58.433594 75.09375 58.433594 C 75.6875 58.433594 76.265625 58.335938 76.824219 58.136719 C 77.382812 57.941406 77.894531 57.65625 78.355469 57.285156 Z M 78.355469 57.285156 " fill-opacity="1" fill-rule="nonzero"/></svg>