<svg xmlns="http://www.w3.org/2000/svg" width="64" height="64" viewBox="0 0 16.933 16.933" id="wish-list"><path fill="#e4eff8" d="m 15.080724,1.0820768 0.319092,-0.55263412 c 0.146576,-0.25385202 0.468959,-0.34022678 0.722833,-0.19366548 0.253875,0.14656181 0.340257,0.46891609 0.193683,0.7227681 L 15.99724,1.6111794"></path><path fill="#c4dcf0" d="M 15.399623,0.52959629 15.08079,1.0819507 15.996985,1.6110535 16.136506,1.369237 15.638878,1.0819507 15.958229,0.52959629 c 0.0451,-0.0781083 0.10804,-0.1384227 0.179311,-0.1829125 -0.0053,-0.003317 -0.0095,-0.007695 -0.01499,-0.0108507 -0.09521,-0.0549605 -0.200194,-0.0773724 -0.30178,-0.0702715 -0.169309,0.0118348 -0.329537,0.10537712 -0.421147,0.26403465 z"></path><path fill="#549ad4" d="m 13.493338,15.080957 c 0,0.879369 0.708004,1.587308 1.587452,1.587308 0.879448,0 1.587451,-0.707939 1.587451,-1.587308 v -1.851861 h -3.174903"></path><path fill="#3588cb" d="m 16.13909,13.229097 v 1.322757 c 0,0.879368 -0.708003,1.587308 -1.587451,1.587308 -0.303363,0 -0.585224,-0.08606 -0.825764,-0.232516 0.278138,0.456744 0.778829,0.761619 1.354915,0.761619 0.879448,0 1.587451,-0.707939 1.587451,-1.587308 v -1.85186 z"></path><path fill="#e4eff8" d="M 15.07898,16.668264 H 1.8520286 c -0.87944803,0 -1.58745132,-0.707939 -1.58745132,-1.587308 V 1.0729517 H 13.493338 V 15.345508 c 0,0.529103 0.52915,1.322757 1.585642,1.322756 z"></path><path fill="#ffca28" d="m 15.36437,1.1199346 0.458258,0.2645516 c 0.253874,0.1465613 0.340257,0.4689157 0.193682,0.7227675 l -4.100916,7.1023544 -1.481113,0.9778229 0.10634,-1.7714771 4.100915,-7.1023544 C 14.788111,1.0597477 15.110495,0.97337281 15.36437,1.1199346 Z"></path><path fill="#ecb200" d="m 14.641553,1.3134331 -4.100915,7.1025851 -0.106451,1.7712538 0.558089,-0.3684081 0.07751,-1.2938216 4.100916,-7.102585 C 15.240302,1.3019192 15.350279,1.2207155 15.473,1.1827075 l -0.108517,-0.06252 c -0.09521,-0.05496 -0.200194,-0.077372 -0.301781,-0.070272 -0.16931,0.011835 -0.32954,0.1048604 -0.421149,0.2635178 z"></path><path fill="#c4dcf0" d="M 0.26457729,1.0731667 V 15.080957 c 0,0.879369 0.70800329,1.587308 1.58745131,1.587308 H 15.078723 c -0.570015,0 -0.980583,-0.23324 -1.243297,-0.529103 H 2.3811791 c -0.8794481,0 -1.58745137,-0.70794 -1.58745137,-1.587308 V 1.0731667 Z"></path><path fill="#549ad4" d="M2.9103295 11.641788h1.0583009c.2931493 0 .5291504.235979.5291504.529102v1.058206c0 .293123-.2360011.529103-.5291504.529103H2.9103295c-.2931493 0-.5291504-.23598-.5291504-.529103V12.17089c0-.293123.2360011-.529102.5291504-.529102zM2.9103295 7.9380689h1.0583009c.2931493 0 .5291504.2359798.5291504.5291028v1.0582056c0 .2931229-.2360011.5291027-.5291504.5291027H2.9103295c-.2931493 0-.5291504-.2359798-.5291504-.5291027V8.4671717c0-.293123.2360011-.5291028.5291504-.5291028z"></path><path fill="#3588cb" d="M2.9103295 11.641789c-.2931494 0-.5291504.235979-.5291504.529102v1.058206c0 .293123.236001.529102.5291504.529102h1.0583009c.2931493 0 .5291504-.235979.5291504-.529102H3.4394799c-.2931493 0-.5291504-.23598-.5291504-.529103zM2.9103295 7.9380688c-.2931494 0-.5291504.2359798-.5291504.5291028v1.0582056c0 .2931229.236001.5291028.5291504.5291028h1.0583009c.2931493 0 .5291504-.2359799.5291504-.5291028H3.4394799c-.2931493 0-.5291504-.2359799-.5291504-.5291028z"></path><path fill="#549ad4" d="m 2.9103295,4.2343493 h 1.0583009 c 0.2931493,0 0.5291504,0.2359798 0.5291504,0.5291028 v 1.0582056 c 0,0.2931229 -0.2360011,0.5291028 -0.5291504,0.5291028 H 2.9103295 c -0.2931493,0 -0.5291504,-0.2359799 -0.5291504,-0.5291028 V 4.7634521 c 0,-0.293123 0.2360011,-0.5291028 0.5291504,-0.5291028 z"></path><path fill="#3588cb" d="m 2.9103295,4.2343493 c -0.2931494,0 -0.5291504,0.2359798 -0.5291504,0.5291027 v 1.0582057 c 0,0.2931229 0.236001,0.5291027 0.5291504,0.5291027 h 1.0583009 c 0.2931493,0 0.5291504,-0.2359798 0.5291504,-0.5291027 H 3.4394799 c -0.2931493,0 -0.5291504,-0.2359799 -0.5291504,-0.5291029 z"></path><path d="m 2.1166038,0.0035937 c -0.1324169,0 -0.2645752,0.08815327 -0.2645752,0.2640347 V 0.79518109 H 0.26354379 C 0.11742857,0.7957653 -5.5520614e-4,0.91466369 2.0686443e-6,1.0607659 V 15.08199 c 0,1.026522 0.8300634513557,1.851343 1.8515098313557,1.851343 H 15.08079 c 1.022478,0 1.852543,-0.824821 1.852543,-1.851343 v -1.85341 c -5.82e-4,-0.146305 -0.119809,-0.264361 -0.266126,-0.263518 h -2.90981 V 6.5481407 l 2.091281,-3.621564 0.458356,0.2650681 -1.322876,2.2905397 c -0.166524,0.3109905 0.270847,0.5622657 0.458872,0.2645514 l 1.454647,-2.5189221 c 0.07276,-0.1267043 0.02904,-0.2883997 -0.09767,-0.3611746 L 16.112736,2.4692954 16.245541,2.2393631 C 16.36149,2.0385505 16.382303,1.812203 16.312201,1.5950357 l 0.234087,-0.4040609 c 0.217574,-0.37681498 0.09069,-0.86373389 -0.290929,-1.08404071 -0.141318,-0.08158285 -0.301496,-0.11604727 -0.454222,-0.1048905 -0.254543,0.01859462 -0.496,0.16131822 -0.631984,0.39682712 L 14.93799,0.80018601 C 14.722123,0.84590581 14.527651,0.98017016 14.4116,1.1811575 14.32896,1.3242839 13.870988,2.1179381 13.757397,2.3148015 V 1.0607659 C 13.757954,0.91466367 13.63997,0.79576525 13.493855,0.79518109 H 11.641828 V 0.2676284 c 0,-0.35176285 -0.530183,-0.35176285 -0.530183,0 V 0.79518109 H 9.7892852 V 0.2676284 c 0,-0.35176285 -0.5296671,-0.35176285 -0.5296671,0 V 0.79518109 H 7.9372587 V 0.2676284 c 0,-0.35176285 -0.5296672,-0.35176285 -0.5296672,0 V 0.79518109 H 6.0857488 V 0.2676284 c 0,-0.35176285 -0.5301838,-0.35176285 -0.5301838,0 V 0.79518109 H 4.2332056 V 0.2676284 c 0,-0.35176285 -0.5296672,-0.35176285 -0.5296672,0 V 0.79518109 H 2.3816958 V 0.2676284 c 0,-0.17588143 -0.132675,-0.2640347 -0.265092,-0.2640347 z M 15.954864,1.1560978 15.496244,0.89103058 15.628532,0.66135694 c 0.07175,-0.1242563 0.232726,-0.17131227 0.361213,-0.0971408 0.124466,0.0718502 0.173242,0.23183486 0.09767,0.36272395 z m -0.722667,0.1929878 0.454739,0.2624846 c 0.1309,0.075569 0.175311,0.233386 0.09973,0.3642748 L 15.654897,2.204744 14.738702,1.6751245 14.870473,1.4467422 c 0.07773,-0.1346283 0.238771,-0.1686372 0.361724,-0.097657 z M 0.52915251,1.3242839 H 1.8520286 v 0.5291028 c 0,0.3530796 0.5296672,0.3530796 0.5296672,0 V 1.3242839 h 1.3218426 v 0.5291028 c 0,0.3530796 0.5296672,0.3530796 0.5296672,0 V 1.3242839 H 5.555565 v 0.5291028 c 0,0.3530796 0.5301838,0.3530796 0.5301838,0 V 1.3242839 h 1.3218427 v 0.5291028 c 0,0.3530796 0.5296672,0.3530796 0.5296672,0 V 1.3242839 h 1.3223594 v 0.5291028 c 0,0.3530796 0.5296671,0.3530796 0.5296671,0 V 1.3242839 h 1.3223598 v 0.5291028 c 0,0.3530796 0.530183,0.3530796 0.530183,0 V 1.3242839 h 1.586418 v 1.9071468 l -2.916011,5.0523119 c -0.02072,0.035812 -0.03276,0.075985 -0.03514,0.1172912 l -0.103867,1.7082162 -0.100766,0.174646 c -0.1765553,0.305776 0.282317,0.570844 0.458873,0.265068 l 0.101283,-0.175162 1.429326,-0.9434979 c 0.03383,-0.022732 0.06195,-0.05297 0.08216,-0.088356 L 13.228242,7.464253 c -0.0019,2.541222 0,5.080818 0,7.617737 0,0.511689 0.210406,0.985498 0.554471,1.321724 H 1.8515119 c -0.7374498,0 -1.32235939,-0.593109 -1.32235939,-1.321724 z M 14.47361,2.1339559 15.390322,2.662542 c -0.573519,0.9932749 -1.208767,2.0941267 -1.85151,3.2076857 L 12.6221,5.3406083 Z M 2.9092961,3.9697979 c -0.4351478,0 -0.7926923,0.3492451 -0.7926923,0.7926209 V 5.821141 c 0,0.4413091 0.3575445,0.7946876 0.7926923,0.7946876 h 1.0603677 c 0.4351477,0 0.7926922,-0.3523452 0.7926922,-0.7946876 V 4.7624188 c 0,-0.4402755 -0.3575445,-0.7926209 -0.7926922,-0.7926209 z m 0,0.5291028 h 1.0603677 c 0.151151,0 0.2635418,0.1227145 0.2635418,0.2635181 V 5.821141 c 0,0.1511374 -0.1206587,0.2655848 -0.2635418,0.2655848 H 2.9092961 c -0.1428831,0 -0.2635419,-0.1144474 -0.2635419,-0.2655848 V 4.7624188 c 0,-0.1428705 0.1123908,-0.2635181 0.2635419,-0.2635181 z m 3.175936,0 c -0.3531113,0 -0.3531113,0.5296195 0,0.5296195 h 1.8520266 c 0.3517945,0 0.3517945,-0.5296195 0,-0.5296195 z m 0,1.0576889 c -0.3531113,0 -0.3531113,0.5301362 0,0.5301362 h 3.9903319 c 0.351794,0 0.351794,-0.5301362 0,-0.5301362 z m 6.2722929,0.2418164 0.917229,0.5291028 c -0.53786,0.9318421 -1.087006,1.8831295 -1.556447,2.696151 L 10.730284,9.6762541 10.800562,8.494557 Z M 2.9092961,7.6745543 c -0.4424557,0 -0.7926923,0.3575123 -0.7926923,0.7926208 v 1.0587223 c 0,0.441309 0.3575445,0.7926206 0.7926923,0.7926206 h 1.0603677 c 0.4413488,0 0.7926922,-0.3575121 0.7926922,-0.7926206 V 8.4671751 c 0,-0.4351085 -0.3492766,-0.7926208 -0.7926922,-0.7926208 z m 0,0.5270361 h 1.0603677 c 0.1418496,0 0.2635418,0.1154806 0.2635418,0.2655847 v 1.0587223 c 0,0.1511374 -0.1196253,0.2635181 -0.2635418,0.2635181 H 2.9092961 c -0.1418497,0 -0.2635419,-0.1123807 -0.2635419,-0.2635181 V 8.4671751 c 0,-0.1511374 0.1227259,-0.2655847 0.2635419,-0.2655847 z m 3.175936,0.00103 c -0.3531113,0 -0.3531113,0.5296195 0,0.5296195 h 1.8520266 c 0.3517945,0 0.3517945,-0.5296195 0,-0.5296195 z m 0,1.0576889 c -0.3531113,0 -0.3531113,0.5301362 0,0.5301362 h 2.6457522 c 0.3517943,0 0.3517943,-0.5301362 0,-0.5301362 z m -3.175936,2.1169277 c -0.4413487,0 -0.7926923,0.357512 -0.7926923,0.792621 v 1.058722 c 0,0.442343 0.3575445,0.794688 0.7926923,0.794688 h 1.0603677 c 0.4351477,0 0.7926922,-0.352345 0.7926922,-0.794688 v -1.058722 c 0,-0.435109 -0.3523771,-0.792621 -0.7926922,-0.792621 z m 3.175936,0.528586 c -0.3531113,0 -0.3531113,0.52962 0,0.52962 h 1.8520266 c 0.3517945,0 0.3517945,-0.52962 0,-0.52962 z m -3.175936,5.17e-4 h 1.0603677 c 0.151151,0 0.2635418,0.121681 0.2635418,0.263518 v 1.058722 c 0,0.151137 -0.1216922,0.265585 -0.2635418,0.265585 H 2.9092961 c -0.1511511,0 -0.2635419,-0.122715 -0.2635419,-0.265585 v -1.058722 c 0,-0.139446 0.1123908,-0.263518 0.2635419,-0.263518 z m 3.175936,1.057172 c -0.3531113,0 -0.3531113,0.52962 0,0.52962 h 4.4977789 c 0.351794,0 0.351794,-0.52962 0,-0.52962 z m 7.6721649,0.530653 h 2.646269 v 1.587825 c 0,0.737384 -0.59522,1.322272 -1.322876,1.321724 -0.727657,-5.56e-4 -1.323392,-0.585036 -1.323393,-1.321724 z" color="#000" font-family="sans-serif" font-weight="400" overflow="visible" style="line-height:normal;font-variant-ligatures:normal;font-variant-position:normal;font-variant-caps:normal;font-variant-numeric:normal;font-variant-alternates:normal;font-feature-settings:normal;text-indent:0;text-align:start;text-decoration-line:none;text-decoration-style:solid;text-decoration-color:#000;text-transform:none;text-orientation:mixed;shape-padding:0;isolation:auto;mix-blend-mode:normal"></path></svg>